<?xml version="1.0" standalone="no"?>
<!DOCTYPE svg PUBLIC "-//W3C//DTD SVG 1.1//EN" "http://www.w3.org/Graphics/SVG/1.1/DTD/svg11.dtd" >
<!--
2013-9-30: Created.
-->
<svg>
<metadata>
Created by iconfont
</metadata>
<defs>

<font id="iconfont" horiz-adv-x="1024" >
  <font-face
    font-family="iconfont"
    font-weight="500"
    font-stretch="normal"
    units-per-em="1024"
    ascent="896"
    descent="-128"
  />
    <missing-glyph />
    
    <glyph glyph-name="x" unicode="x" horiz-adv-x="1001"
d="M281 543q-27 -1 -53 -1h-83q-18 0 -36.5 -6t-32.5 -18.5t-23 -32t-9 -45.5v-76h912v41q0 16 -0.5 30t-0.5 18q0 13 -5 29t-17 29.5t-31.5 22.5t-49.5 9h-133v-97h-438v97zM955 310v-52q0 -23 0.5 -52t0.5 -58t-10.5 -47.5t-26 -30t-33 -16t-31.5 -4.5q-14 -1 -29.5 -0.5
t-29.5 0.5h-32l-45 128h-439l-44 -128h-29h-34q-20 0 -45 1q-25 0 -41 9.5t-25.5 23t-13.5 29.5t-4 30v167h911zM163 247q-12 0 -21 -8.5t-9 -21.5t9 -21.5t21 -8.5q13 0 22 8.5t9 21.5t-9 21.5t-22 8.5zM316 123q-8 -26 -14 -48q-5 -19 -10.5 -37t-7.5 -25t-3 -15t1 -14.5
t9.5 -10.5t21.5 -4h37h67h81h80h64h36q23 0 34 12t2 38q-5 13 -9.5 30.5t-9.5 34.5q-5 19 -11 39h-368zM336 498v228q0 11 2.5 23t10 21.5t20.5 15.5t34 6h188q31 0 51.5 -14.5t20.5 -52.5v-227h-327z" />
    

    
    <glyph glyph-name="wangfill" unicode="&#58981;" d="M512 744.512c-81.056 0-159.36-21.536-228.288-62.496C245.152 724.32 189.024 748 125.344 748 113.664 748 102.912 741.664 97.28 731.392c-5.632-10.24-5.216-22.72 1.056-32.576 0.32-0.512 31.136-49.664 40.864-128.192-8.128-27.296-26.72-65.12-37.44-94.336-22.912-62.464-37.536-116.416-37.536-179.52 0-246.88 200.864-447.776 447.744-447.776s447.712 200.864 447.712 447.776C959.712 543.648 758.88 744.512 512 744.512zM576 332c0-26.496-21.504-48-48-48S480 305.504 480 332l0 64c0 26.528 21.504 48 48 48S576 422.528 576 396L576 332zM767.008 332c0-26.496-21.504-48-48-48s-48 21.504-48 48l0 64c0 26.528 21.504 48 48 48s48-21.472 48-48L767.008 332z"  horiz-adv-x="1024" />

    
    <glyph glyph-name="cut" unicode="&#58921;" d="M642.048 680.192q17.408 31.744 28.672 46.592t17.408 19.968 16.896 2.048 16.896-15.36 5.12-34.304-7.168-62.976q-3.072-20.48-14.336-46.080t-24.576-50.688-26.112-46.592-19.968-32.768q-8.192-11.264-23.552-31.744l-30.72-40.96q-18.432-23.552-37.888-49.152 11.264-18.432 22.528-34.816 9.216-14.336 17.92-28.16t13.824-22.016q16.384-26.624 47.616-52.224t61.952-40.96q15.36-8.192 45.056-17.408t58.368-28.16 49.664-52.224 17.92-89.6q-2.048-45.056-20.48-77.312t-46.080-52.224-61.952-27.648-67.584-3.072-62.976 22.016-48.128 48.128q-18.432 28.672-25.088 56.832t-6.656 56.832 4.608 58.368 9.728 60.416q3.072 17.408 2.56 29.184t-3.072 20.48-6.656 14.848l-8.192 12.288q-4.096 6.144-12.288 17.92t-16.384 23.040q-10.24 13.312-21.504 27.648l-16.384-22.528q-8.192-10.24-16.896-22.528t-16.896-23.552q-17.408-23.552-18.944-38.4t3.584-35.328q3.072-10.24 7.68-37.376t3.072-62.464-12.288-74.24-39.424-73.728q-24.576-29.696-56.32-44.032t-64-15.36-63.488 10.24-55.808 31.744-39.936 50.176-16.384 65.536q-2.048 54.272 18.432 89.6t50.176 57.856 61.952 35.328 54.784 20.992q21.504 8.192 36.352 15.872t25.6 15.36 17.92 15.872 15.36 17.408 18.944 25.088 22.016 32.256q12.288 18.432 25.6 39.936-8.192 11.264-19.456 25.6-9.216 12.288-23.040 29.184t-30.208 37.376q-16.384 21.504-33.792 50.688t-32.256 57.856-26.112 53.248-15.36 35.84-8.192 29.184-5.12 35.328 2.048 32.256 12.288 20.992q9.216 5.12 15.872 4.608t11.776-5.12 9.728-12.288 11.776-17.92q3.072-5.12 12.8-19.968t23.552-35.84 30.208-46.592l32.768-51.2q38.912-60.416 87.040-135.168 35.84 61.44 67.584 113.664l26.624 45.056q13.312 22.528 25.088 41.984t20.48 34.304 13.824 23.040zM254.976 64.768q-37.888 0-64-26.112t-26.112-62.976 26.112-63.488 64-26.624q36.864 0 62.976 26.624t26.112 63.488-26.112 62.976-62.976 26.112zM710.656 64.768q-36.864 0-63.488-26.112t-26.624-62.976q0-18.432 7.168-34.816t19.456-28.672 28.672-19.456 34.816-7.168q36.864 0 62.976 26.624t26.112 63.488-26.112 62.976-62.976 26.112z"  horiz-adv-x="1024" />

    
    <glyph glyph-name="telecomwebinfo" unicode="&#58978;" d="M944.0409-36.642157 579.417459-36.642157c-6.523577 12.193717-16.194844 22.438035-27.934213 29.661553l0 64.697511c173.08815 20.168342 307.427788 167.304424 307.427788 345.773118 0 192.269002-155.87 348.134909-348.147188 348.134909-192.272072 0-348.147188-155.865907-348.147188-348.134909 0-178.472787 134.338614-325.604776 307.427788-345.773118l0-64.697511c-11.739369-7.223518-21.410636-17.47193-27.934213-29.661553L77.488839-36.642157l0-70.578452 363.228675 0c12.607132-25.978674 39.23356-43.887556 70.047356-43.887556s57.440224 17.908882 70.047356 43.887556l363.228675 0L944.0409-36.642157 944.0409-36.642157zM487.553215 380.283488l0-92.835362L361.326349 287.448126c-7.003508 29.713742-11.174504 60.807924-12.508895 92.835362L487.553215 380.283488 487.553215 380.283488zM348.818477 426.70168c1.334391 32.027437 5.552459 63.122643 12.508895 92.836385l126.226866 0 0-92.836385L348.818477 426.70168 348.818477 426.70168zM724.119095 190.170592c-24.432459-24.432459-52.378951-44.197618-83.181491-58.977229 22.412452 29.876448 41.116443 67.228147 54.621015 109.837594l69.541843 0C753.404072 222.759825 739.714282 205.718707 724.119095 190.170592L724.119095 190.170592zM789.373285 287.448126l-81.59639 0c6.208399 29.328979 10.155291 60.493769 11.42419 92.835362l92.40762 0C809.204959 348.214095 801.726637 317.118889 789.373285 287.448126L789.373285 287.448126zM811.608705 426.70168l-92.40762 0c-1.315972 32.342616-5.215792 63.506383-11.42419 92.836385l81.59639 0C801.769616 489.867302 809.204959 458.772097 811.608705 426.70168L811.608705 426.70168zM724.119095 616.837088c15.595186-15.568581 29.286-32.592302 40.981367-50.881854l-69.541843 0c-13.504572 42.608423-32.160467 79.985706-54.621015 109.837594C671.803589 661.013217 699.729615 641.248058 724.119095 616.837088L724.119095 616.837088zM533.975501 701.810389c10.586103-3.061732 21.078061-8.250918 31.323403-15.501042 19.263739-13.599739 37.738509-34.522258 53.355185-60.518329 10.81123-18.016329 20.12434-38.010709 27.921933-59.835783L533.975501 565.955234 533.975501 701.810389 533.975501 701.810389zM533.975501 519.537042l126.226866 0c6.955412-29.713742 11.17348-60.807924 12.507872-92.836385L533.975501 426.700657 533.975501 519.537042 533.975501 519.537042zM533.975501 380.283488l138.733715 0c-1.334391-32.026414-5.551436-63.12162-12.507872-92.835362L533.975501 287.448126 533.975501 380.283488 533.975501 380.283488zM646.576021 241.030957c-7.7935-21.807678-17.110703-41.845037-27.878954-59.836807-15.616676-26.01756-34.091446-46.961568-53.351092-60.518329-10.293437-7.253194-20.741393-12.459776-31.328519-15.498996l-0.042979 135.855154L646.576021 241.03198 646.576021 241.030957zM456.229812 686.305253c10.289344 7.254218 20.741393 12.443403 31.323403 15.505136l0-135.855154L374.952694 565.955234c7.797593 21.825075 17.10968 41.815361 27.921933 59.832713C418.494373 651.83416 436.96505 672.752586 456.229812 686.305253L456.229812 686.305253zM297.410644 616.837088c24.436552 24.410969 52.384068 44.177152 83.184561 58.951647-22.416546-29.846772-41.11542-67.224054-54.625108-109.833501l-69.537749 0C268.124643 584.243763 281.814434 601.267485 297.410644 616.837088L297.410644 616.837088zM232.155431 519.537042l81.59639 0c-6.208399-29.330002-10.155291-60.493769-11.42419-92.836385l-92.408643 0C212.32478 458.772097 219.803101 489.867302 232.155431 519.537042L232.155431 519.537042zM209.918987 380.283488l92.408643 0c1.315972-32.341592 5.215792-63.506383 11.42419-92.835362l-81.59639 0C219.760123 317.118889 212.32478 348.214095 209.918987 380.283488L209.918987 380.283488zM297.410644 190.170592c-15.591093 15.548114-29.281907 32.589233-40.978297 50.860365l69.537749 0c13.509688-42.609447 32.165584-79.961146 54.625108-109.837594C349.72615 145.971951 321.7991 165.738134 297.410644 190.170592L297.410644 190.170592zM402.874627 181.19415c-10.812253 17.99177-20.12434 38.029128-27.921933 59.836807l112.600521 0 0-135.855154c-10.582009 3.039219-21.078061 8.246825-31.323403 15.498996C436.96505 134.275561 418.494373 155.220592 402.874627 181.19415L402.874627 181.19415zM402.874627 181.19415"  horiz-adv-x="1024" />

    
    <glyph glyph-name="telecomnet" unicode="&#58979;" d="M929.675728 329.610388c-15.582907 0-28.2893-12.665461-28.2893-28.328185 0-178.217984-120.425743-328.786235-284.041148-374.907669 61.621453 61.661362 132.719744 176.469154 132.719744 377.736087 0 347.506599-212.101699 436.775738-221.076094 440.476013-2.162246 0.813528-4.451382 1.401929-6.715959 1.720178l-6.553253 0.915859c-1.290389 0.221034-2.573615 0.309038-3.858888 0.309038-246.110257 0-446.249507-200.242604-446.249507-446.249507 0-246.071372 200.13925-446.249507 446.249507-446.249507 245.952668 0 446.187085 200.178135 446.187085 446.249507C958.046892 316.944927 945.31594 329.610388 929.675728 329.610388L929.675728 329.610388zM398.312728 673.900735c-36.279275-38.411845-74.67577-95.323019-99.249445-177.404456L174.986383 496.49628C223.893256 580.710286 303.461453 644.930937 398.312728 673.900735L398.312728 673.900735zM160.173003 468.927387c1.416256-0.451278 2.828418-0.760317 4.358261-0.760317l126.920668 0c-11.146874-45.651736-17.921161-98.331539-18.298761-158.977781L122.43347 309.18929C123.589806 366.23247 136.949069 420.383788 160.173003 468.927387L160.173003 468.927387zM167.672814 119.083557c-25.911136 48.734958-41.856293 103.582123-44.842301 161.742754l150.60509 0c1.76111-61.556984 10.289344-114.704438 23.099091-160.228261L173.815721 120.598051C171.658591 120.598051 169.496345 120.033186 167.672814 119.083557L167.672814 119.083557zM183.334515 92.229956 305.338197 92.229956c26.455535-77.116355 65.019853-130.208551 100.470249-165.728532C312.965921-47.198583 234.153948 12.727251 183.334515 92.229956L183.334515 92.229956zM484.277612-66.003881c-32.778544 22.906709-84.111676 70.471005-118.474298 158.233837l118.474298 0L484.277612-66.003881 484.277612-66.003881zM484.277612 120.598051 355.759563 120.598051c-14.014178 44.106544-23.642466 97.008404-25.62768 160.223145l154.145729 0L484.277612 120.598051 484.277612 120.598051zM484.277612 309.18929 329.85252 309.18929c0.372483 62.058404 8.058536 114.577548 20.107967 158.977781l134.317125 0L484.277612 309.18929 484.277612 309.18929zM484.277612 496.49628 358.65245 496.49628c34.013675 100.381222 90.455151 153.091724 125.625162 177.585581L484.277612 496.49628 484.277612 496.49628zM540.973892 672.513132c35.204803-25.12626 90.140996-77.680197 123.522268-176.016853L540.973892 496.49628 540.973892 672.513132 540.973892 672.513132zM540.973892 468.167071l132.188648 0c12.010545-44.400233 19.769252-96.9204 20.177552-158.977781L540.973892 309.18929 540.973892 468.167071 540.973892 468.167071zM540.973892 280.826312l152.017252 0c-1.950422-63.219857-11.543917-116.120694-25.538653-160.228261L540.973892 120.598051 540.973892 280.826312 540.973892 280.826312zM540.973892-64.718609 540.973892 92.229956 657.437393 92.229956C623.771643 6.202651 573.85579-41.140611 540.973892-64.718609L540.973892-64.718609zM884.003526 403.154381c0-19.700691 15.994276-35.671431 35.646871-35.671431 19.672038 0 35.627429 15.97074 35.627429 35.671431 0 19.60757-15.956414 35.617196-35.627429 35.617196C899.998825 438.771577 884.003526 422.761951 884.003526 403.154381L884.003526 403.154381zM884.003526 467.82017c16.818037 0 30.524201 13.646811 30.524201 30.499641 0 16.84669-13.706163 30.493501-30.524201 30.493501-16.784268 0-30.504758-13.646811-30.504758-30.493501C853.498768 481.466981 867.219257 467.82017 884.003526 467.82017L884.003526 467.82017zM825.89099 560.3424c12.397355 0 22.441105 10.103102 22.441105 22.466688 0 12.43624-10.04375 22.464641-22.441105 22.464641-12.392238 0-22.464641-10.034541-22.464641-22.464641C803.426349 570.450618 813.498752 560.3424 825.89099 560.3424L825.89099 560.3424zM825.89099 560.3424"  horiz-adv-x="1024" />

    
    <glyph glyph-name="file-audio-o" unicode="&#59098;" d="M838.827 582.847q16.018-16.018 27.428-43.445t11.446-50.284v-658.262q0-22.856-16.018-38.837t-38.837-16.018h-767.973q-22.856 0-38.837 16.018t-16.018 38.837v914.253q0 22.856 16.018 38.837t38.837 16.018h511.982q22.856 0 50.284-11.446t43.445-27.428zM585.14 722.288v-214.849h214.849q-5.705 16.566-12.58 23.441l-178.864 178.864q-6.839 6.839-23.441 12.58zM804.561-150.823v585.122h-237.706q-22.856 0-38.837 16.018t-16.018 38.837v237.706h-438.841v-877.683h731.402zM354.31 314.312q11.446-4.571 11.446-17.151v-310.846q0-12.58-11.446-17.151-4.571-1.134-6.839-1.134-6.839 0-13.129 5.156l-94.863 95.411h-74.859q-8.009 0-13.129 5.156t-5.156 13.129v109.71q0 8.009 5.156 13.129t13.129 5.156h74.859l94.863 95.411q9.143 8.557 20.004 3.986zM592.564-79.402q17.7 0 28.561 13.714 73.725 90.84 73.725 207.426t-73.725 207.426q-9.143 11.995-24.575 13.714t-26.842-8.009q-11.995-9.728-13.421-24.868t8.301-27.135q57.159-70.288 57.159-161.128t-57.159-161.128q-9.728-11.995-8.301-27.135t13.421-24.283q10.276-8.557 22.856-8.557zM471.992 5.185q15.433 0 26.842 11.446 49.699 53.136 49.699 125.143t-49.699 125.143q-10.276 10.861-25.709 11.446t-26.294-9.728-11.446-25.416 10.276-26.586q29.695-32.584 29.695-74.859t-29.695-74.859q-10.861-11.446-10.276-26.586t11.446-25.416q11.446-9.728 25.16-9.728z"  horiz-adv-x="1024" />

    
    <glyph glyph-name="tips" unicode="&#59052;" d="M226.117412 612.280306c-11.646248 11.640108-30.529317 11.640108-42.163285 0-11.646248-11.646248-11.646248-30.523177 0-42.170448l42.163285-42.164309c11.648294-11.646248 30.518061-11.646248 42.164309 0 11.646248 11.640108 11.646248 30.517037 0 42.164309L226.117412 612.280306zM792.64633 612.280306l-42.163285-42.170448c-11.647271-11.647271-11.647271-30.524201 0-42.164309 11.632945-11.646248 30.516014-11.646248 42.163285 0l42.163285 42.164309c11.648294 11.646248 11.648294 30.523177 0 42.170448C823.162344 623.919391 804.294624 623.919391 792.64633 612.280306zM151.575696 376.296687l-59.634192 0c-16.467043 0-29.817096-13.349029-29.817096-29.816073s13.350053-29.817096 29.817096-29.817096l59.634192 0c16.467043 0 29.817096 13.350053 29.817096 29.817096S168.040692 376.296687 151.575696 376.296687zM926.824285 376.296687l-59.634192 0c-16.46602 0-29.818119-13.349029-29.818119-29.816073s13.352099-29.817096 29.818119-29.817096l59.634192 0c16.467043 0 29.817096 13.350053 29.817096 29.817096S943.291328 376.296687 926.824285 376.296687zM479.565798 719.196361l0-59.634192c0-16.46602 13.351076-29.817096 29.817096-29.817096 16.467043 0 29.817096 13.351076 29.817096 29.817096L539.19999 719.196361c0 16.467043-13.350053 29.817096-29.817096 29.817096C492.915851 749.013457 479.565798 735.663404 479.565798 719.196361zM300.662199 301.75497c0 115.272373 93.440136 208.720695 208.719672 208.720695s208.721719-93.448322 208.721719-208.720695c0-115.272373-93.442182-208.727859-208.721719-208.727859S300.662199 186.481573 300.662199 301.75497zM241.026984 301.75497c0-148.22181 120.143311-268.364097 268.354887-268.364097 148.214646 0 268.355911 120.142288 268.355911 268.364097 0 148.2126-120.141264 268.355911-268.355911 268.355911C361.170295 570.109858 241.026984 449.966547 241.026984 301.75497zM449.747679-115.696654c0-16.449647 13.351076-29.816073 29.817096-29.816073l59.633169 0c16.468067 0 29.818119 13.366426 29.818119 29.816073 0 16.48137-13.350053 29.819143-29.818119 29.819143L479.565798-85.877511C463.098755-85.877511 449.747679-99.214261 449.747679-115.696654zM390.113487-26.243319c0-16.45067 13.350053-29.819143 29.817096-29.819143l178.902576 0c16.467043 0 29.818119 13.367449 29.818119 29.819143 0 16.479323-13.351076 29.816073-29.818119 29.816073L419.931606 3.572754C403.464563 3.572754 390.113487-9.763996 390.113487-26.243319z"  horiz-adv-x="1024" />

    
    <glyph glyph-name="crop" unicode="&#58923;" d="M976 28l-96 0L880 600.112l129.936 129.936C1018.624 738.736 1024 750.752 1024 764c0 26.512-21.488 48-48 48-13.264 0-25.248-5.376-33.936-14.064L812.112 668 240 668 240 764c0 26.512-21.488 48-48 48S144 790.512 144 764l0-96L48 668c-26.512 0-48-21.488-48-48 0-26.512 21.488-48 48-48l96 0 0-572.128-1.936-1.936L144-4l0-24c0-22.096 17.904-40 40-40L208-68l1.936-1.936L211.888-68 784-68l0-96c0-26.512 21.488-48 48-48 26.512 0 48 21.488 48 48l0 96 96 0c26.512 0 48 21.488 48 48C1024 6.512 1002.512 28 976 28zM240 572l476.112 0L240 95.888 240 572zM784 28 307.888 28 784 504.112 784 28z"  horiz-adv-x="1024" />

    
    <glyph glyph-name="inbox" unicode="&#59091;" d="M910.222222 812 113.777778 812C51.2 812 0 760.8 0 698.222222L0-98.222222C0-160.8 51.2-212 113.777778-212L910.222222-212C972.8-212 1024-160.8 1024-98.222222L1024 698.222222C1024 760.8 972.8 812 910.222222 812L910.222222 812ZM910.222222 129.333333 682.666667 129.333333C682.666667 32.622222 608.711111-41.333333 512-41.333333 415.288889-41.333333 341.333333 32.622222 341.333333 129.333333L113.777778 129.333333 113.777778 698.222222 910.222222 698.222222 910.222222 129.333333 910.222222 129.333333ZM739.555556 413.777778 625.777778 413.777778 625.777778 584.444444 398.222222 584.444444 398.222222 413.777778 284.444444 413.777778 512 186.222222 739.555556 413.777778 739.555556 413.777778Z"  horiz-adv-x="1024" />

    
    <glyph glyph-name="hddo" unicode="&#59268;" d="M594.272 117.152q0-18.848-13.44-32.288t-32.288-13.44-32.288 13.44-13.44 32.288 13.44 32.288 32.288 13.44 32.288-13.44 13.44-32.288zM740.576 117.152q0-18.848-13.44-32.288t-32.288-13.44-32.288 13.44-13.44 32.288 13.44 32.288 32.288 13.44 32.288-13.44 13.44-32.288zM804.576 25.728l0 182.848q0 7.424-5.44 12.864t-12.864 5.44l-694.848 0q-7.424 0-12.864-5.44t-5.44-12.864l0-182.848q0-7.424 5.44-12.864t12.864-5.44l694.848 0q7.424 0 12.864 5.44t5.44 12.864zM101.728 300l674.272 0-89.728 275.424q-2.272 7.424-9.152 12.288t-14.848 4.864l-446.848 0q-8 0-14.848-4.864t-9.152-12.288zM877.728 208.576l0-182.848q0-37.728-26.848-64.576t-64.576-26.848l-694.848 0q-37.728 0-64.576 26.848t-26.848 64.576l0 182.848q0 14.272 9.152 42.848l112.576 346.272q9.728 30.272 36 49.152t57.728 18.848l446.848 0q31.424 0 57.728-18.848t36-49.152l112.576-346.272q9.152-28.576 9.152-42.848z"  horiz-adv-x="1024" />

    
    <glyph glyph-name="time" unicode="&#59166;" d="M828.694849-14.703495c174.913728 174.913728 174.927031 459.536115 0 634.469286C743.956909 704.497591 631.286804 751.163423 511.463788 751.163423c-119.836319 0-232.506425-46.666856-317.231061-131.397632C109.493763 535.027851 62.814628 422.371048 62.814628 302.534729s46.679136-232.499262 131.418099-317.244364c84.73794-84.73794 197.394742-131.404796 317.231061-131.404796S743.956909-99.448598 828.694849-14.703495zM251.142877 42.207679c-69.527516 69.540819-107.836007 161.989371-107.836007 260.32705 0 98.330516 38.307468 190.779068 107.836007 260.313747 69.527516 69.527516 161.983231 107.822704 260.319887 107.822704 98.324376 0 190.779068-38.294165 260.319887-107.822704 143.536091-143.549394 143.536091-377.103684 0-520.633634C702.242855-27.327 609.800443-65.621165 511.463788-65.621165S320.68472-27.327 251.142877 42.207679zM540.417213 247.765335c8.968256 8.964162 12.811794 21.106714 11.54801 32.803103 0.156566 1.442862 0.242524 2.907213 0.242524 4.391007L552.207747 509.04099c0 22.226211-18.014282 40.246633-40.246633 40.246633s-40.246633-18.020422-40.246633-40.246633L471.714482 292.883929 364.167047 185.324214c-15.721053-15.714913-15.721053-41.196261 0-56.918337 7.861038-7.853875 18.158568-11.784394 28.456099-11.784394 10.29753 0 20.608364 3.930519 28.456099 11.791557L540.417213 247.765335z"  horiz-adv-x="1024" />

    
    <glyph glyph-name="star" unicode="&#58957;" d="M987.428571 442.285714q0-12.571429-14.857143-27.428571l-207.428571-202.285714 49.142857-285.714286q0.571429-4 0.571429-11.428571 0-12-6-20.285714t-17.428571-8.285714q-10.857143 0-22.857143 6.857143l-256.571429 134.857143-256.571429-134.857143q-12.571429-6.857143-22.857143-6.857143-12 0-18 8.285714t-6 20.285714q0 3.428571 1.142857 11.428571l49.142857 285.714286-208 202.285714q-14.285714 15.428571-14.285714 27.428571 0 21.142857 32 26.285714l286.857143 41.714286 128.571429 260q10.857143 23.428571 28 23.428571t28-23.428571l128.571429-260 286.857143-41.714286q32-5.142857 32-26.285714z"  horiz-adv-x="1024" />

    
    <glyph glyph-name="info1" unicode="&#58944;" d="M512.001 830.71c-243.135 0-440.234-199.999-440.234-446.714 0-246.709 197.1-446.706 440.234-446.706 243.132 0 440.234 199.997 440.234 446.706 0 246.713-197.102 446.714-440.234 446.714zM581.027 219.634c-33.229-50.604-67.026-89.631-123.893-89.631-38.818 6.415-54.757 34.643-46.33 63.389l73.155 245.848c1.757 6.020-1.202 12.456-6.61 14.38-5.41 1.931-15.981-5.187-25.134-15.35l-44.205-53.978c-1.204 9.037-0.127 24.042-0.127 30.085 33.229 50.598 87.789 90.537 124.802 90.537 35.207-3.66 51.828-32.187 45.705-63.555l-73.656-247.034c-0.986-5.596 1.919-11.238 6.921-13.024 5.41-1.919 16.79 5.187 25.944 15.355l44.202 53.978c1.211-9.038-0.774-24.956-0.774-31zM571.178 540.723c-27.972 0-50.65 20.656-50.65 51.122 0 30.461 22.679 51.12 50.65 51.12 27.974 0 50.653-20.659 50.653-51.12 0-30.467-22.679-51.122-50.653-51.122z"  horiz-adv-x="1024" />

    
    <glyph glyph-name="time1" unicode="&#59175;" d="M963.288785 528.23198 670.341094 742.489762c55.977995 77.560859 166.919477 92.467598 247.818398 33.298808C999.058413 716.619779 1019.250417 605.792839 963.288785 528.23198zM960.048901 239.522319c0.261809-249.111079-200.120106-451.260203-447.562154-451.522012C265.028336-212.277865 64.220982-10.537817 63.959173 238.573262 63.697364 487.667978 264.079279 689.833466 511.521327 690.095275 758.979738 690.357083 959.787092 488.633398 960.048901 239.522319zM511.635868 578.499271c-167.001292-0.179994-305.383609-122.57561-332.071744-283.031682L175.767896 295.467589l0-112.823232 3.779865 0c26.720861-160.750607 165.561344-283.211676 332.808082-283.031682C679.357135-100.240059 817.755815 22.171921 844.427587 182.627993l3.796228 0 0 112.823232-3.763502 0C817.739452 456.218196 678.882606 578.662902 511.635868 578.499271zM259.824886 182.627993l0 112.823232L455.968771 295.451226 455.968771 535.219003l112.070532 0 0-239.767777 0-112.823232L455.968771 182.627993 259.824886 182.627993zM105.832219 775.78857c80.898921 59.16879 191.840403 44.262051 247.818398-33.298808L60.719289 528.23198C4.741294 605.792839 24.949661 716.619779 105.832219 775.78857z"  horiz-adv-x="1024" />

    
    <glyph glyph-name="success" unicode="&#59382;" d="M512 802.137868c-277.331828 0-502.137868-224.80604-502.137868-502.137868s224.80604-502.137868 502.137868-502.137868 502.137868 224.80604 502.137868 502.137868C1014.278755 577.331828 789.331828 802.137868 512 802.137868zM404.502759 67.54268l-40.257729 40.550342 0.1445 0.140888-165.936697 167.233585 40.257729 40.550342 165.936697-167.233585L785.433938 532.453708l40.254117-40.54673L404.502759 67.54268z"  horiz-adv-x="1024" />

    
    <glyph glyph-name="piechart" unicode="&#59918;" d="M472.9-148.3c112.7 0 214.7 45.7 288.5 119.7L472.9 259.4 472.9 667c-225 0-407.5-182.5-407.5-407.6S247.9-148.3 472.9-148.3L472.9-148.3 472.9-148.3zM529 318.1l430.8 0C959.8 556.1 766.9 749 529 749L529 318.1 529 318.1zM551.9 260.9l289.6-286.8c73 73.6 118.1 175 118.1 286.8L551.9 260.9z"  horiz-adv-x="1024" />

    
    <glyph glyph-name="image" unicode="&#58925;" d="M959.872 768c0.032-0.032 0.096-0.064 0.128-0.128l0-767.776c-0.032-0.032-0.064-0.096-0.128-0.128l-895.776 0c-0.032 0.032-0.096 0.064-0.128 0.128l0 767.776c0.032 0.032 0.064 0.096 0.128 0.128l895.776 0zM960 832l-896 0c-35.2 0-64-28.8-64-64l0-768c0-35.2 28.8-64 64-64l896 0c35.2 0 64 28.8 64 64l0 768c0 35.2-28.8 64-64 64l0 0zM832 608c0-53.024-42.976-96-96-96s-96 42.976-96 96 42.976 96 96 96 96-42.976 96-96zM896 64l-768 0 0 128 224 384 256-320 64 0 224 192z"  horiz-adv-x="1024" />

    
    <glyph glyph-name="taxi" unicode="&#58935;" d="M1114.83871 540.903226c-8.258065 0-8.258065 0-16.516129 0l-57.806452-16.516129-57.806452 140.387097c-16.516129 41.290323-66.064516 74.322581-115.612903 74.322581l-41.290323 0 0 115.612903c0 24.774194-16.516129 41.290323-41.290323 41.290323l-404.645161 0c-24.774194 0-41.290323-16.516129-41.290323-41.290323l0-115.612903-41.290323 0c-49.548387 0-99.096774-33.032258-115.612903-74.322581l-57.806452-140.387097-57.806452 16.516129c-8.258065 0-8.258065 0-16.516129 0-24.774194 0-49.548387-24.774194-49.548387-49.548387l0-33.032258c0-33.032258 24.774194-66.064516 66.064516-66.064516l0 0-8.258065-16.516129c-16.516129-41.290323-33.032258-107.354839-33.032258-148.645161l0-289.032258c0-33.032258 24.774194-66.064516 66.064516-66.064516l74.322581 0c33.032258 0 66.064516 24.774194 66.064516 66.064516l0 74.322581 685.419355 0 0-74.322581c0-33.032258 24.774194-66.064516 66.064516-66.064516l74.322581 0c33.032258 0 66.064516 24.774194 66.064516 66.064516L1123.096774 227.096774c0 41.290323-16.516129 107.354839-33.032258 148.645161l8.258065 16.516129 8.258065 0c33.032258 0 57.806452 24.774194 57.806452 66.064516l0 33.032258C1164.387097 516.129032 1139.612903 540.903226 1114.83871 540.903226L1114.83871 540.903226zM743.225806 846.451613 743.225806 846.451613l33.032258 0 0 0 0-99.096774 0 0-33.032258 0 0 0L743.225806 846.451613zM528.516129 846.451613l33.032258 0 0 0 41.290323-107.354839 41.290323 49.548387 0 0-33.032258 57.806452 0 0 33.032258 0 0 0 24.774194-24.774194 0 0 16.516129 33.032258 0 0 33.032258 0 0 0-33.032258-57.806452 0 0 41.290323-49.548387 0 0-33.032258 0 0 0-24.774194 33.032258 0 0-24.774194-33.032258 0 0-66.064516 0 0 0-8.258065 24.774194 0 0-41.290323 0 0 0-8.258065-24.774194 0 0-33.032258 0 0 0L528.516129 846.451613 528.516129 846.451613 528.516129 846.451613zM429.419355 747.354839l0 82.580645 0 0-33.032258 0 0 0 0 16.516129 0 0 107.354839 0 0 0 0-16.516129 0 0-33.032258 0 0 0 0-82.580645 0 0L429.419355 747.354839C429.419355 739.096774 429.419355 739.096774 429.419355 747.354839L429.419355 747.354839zM181.677419 425.290323l90.83871 214.709677c8.258065 33.032258 41.290323 49.548387 66.064516 49.548387l503.741935 0c24.774194 0 57.806452-24.774194 66.064516-49.548387l90.83871-214.709677c8.258065-24.774194 0-49.548387-33.032258-49.548387l-759.741935 0C181.677419 384 165.16129 400.516129 181.677419 425.290323L181.677419 425.290323zM379.870968 144.516129c0-16.516129-8.258065-24.774194-24.774194-24.774194l-173.419355 0c-16.516129 0-24.774194 8.258065-24.774194 24.774194l0 82.580645c0 16.516129 16.516129 24.774194 24.774194 24.774194l173.419355 0c16.516129 0 24.774194-8.258065 24.774194-24.774194C379.870968 227.096774 379.870968 144.516129 379.870968 144.516129zM1015.741935 144.516129c0-16.516129-8.258065-24.774194-24.774194-24.774194l-173.419355 0c-16.516129 0-24.774194 8.258065-24.774194 24.774194l0 82.580645c0 16.516129 8.258065 24.774194 24.774194 24.774194l173.419355 0c16.516129 0 24.774194-8.258065 24.774194-24.774194L1015.741935 144.516129z"  horiz-adv-x="1165" />

    
    <glyph glyph-name="bank" unicode="&#58937;" d="M530.016 874.816 1044.32 669.12l0-68.576-68.576 0c0-9.312-3.648-17.344-10.976-24.096-7.328-6.784-16-10.176-25.984-10.176L121.28 566.272c-9.984 0-18.656 3.392-25.984 10.176C87.968 583.232 84.32 591.264 84.32 600.544L15.744 600.544 15.744 669.12 530.016 874.816zM1007.328 17.696c9.984 0 18.656-3.392 25.984-10.176 7.328-6.784 10.976-14.816 10.976-24.096l0-68.608L15.744-85.184l0 68.608c0 9.28 3.648 17.312 10.976 24.096s16 10.176 25.984 10.176L1007.328 17.696zM152.896 531.968l137.12 0 0-411.392 68.576 0L358.592 531.968l137.152 0 0-411.392 68.576 0L564.32 531.968l137.152 0 0-411.392 68.576 0L770.048 531.968l137.152 0 0-411.392 31.584 0c9.984 0 18.656-3.424 25.984-10.176 7.328-6.816 10.976-14.848 10.976-24.128l0-34.272L84.32 52l0 34.272c0 9.28 3.648 17.312 11.008 24.128 7.328 6.752 15.968 10.176 25.984 10.176l31.616 0L152.928 531.968z"  horiz-adv-x="1056" />

    
    <glyph glyph-name="time2" unicode="&#59193;" d="M992-128 32-128C14.336-128 0-113.664 0-96L0 768C0 785.664 14.336 800 32 800L203.36 800 203.36 736C203.36 700.672 232 672 267.328 672L299.36 672C334.688 672 363.36 700.672 363.36 736L363.36 800 660.64 800 660.64 736C660.64 700.672 689.312 672 724.672 672L756.64 672C792 672 820.64 700.672 820.64 736L820.64 800 992 800C1009.664 800 1024 785.664 1024 768L1024-96C1024-113.664 1009.664-128 992-128ZM100.672 47.328C100.672 29.664 115.008 15.328 132.672 15.328L276.672 15.328C294.336 15.328 308.672 29.664 308.672 47.328L308.672 79.328C308.672 96.992 294.336 111.328 276.672 111.328L132.672 111.328C115.008 111.328 100.672 96.992 100.672 79.328L100.672 47.328ZM100.672 240C100.672 222.336 115.008 208 132.672 208L276.672 208C294.336 208 308.672 222.336 308.672 240L308.672 272C308.672 289.664 294.336 304 276.672 304L132.672 304C115.008 304 100.672 289.664 100.672 272L100.672 240ZM315.328 464.672C315.328 482.336 300.992 496.672 283.328 496.672L139.328 496.672C121.664 496.672 107.328 482.336 107.328 464.672L107.328 432.672C107.328 415.008 121.664 400.672 139.328 400.672L283.328 400.672C300.992 400.672 315.328 415.008 315.328 432.672L315.328 464.672ZM404.672 47.328C404.672 29.664 419.008 15.328 436.672 15.328L580.672 15.328C598.336 15.328 612.672 29.664 612.672 47.328L612.672 79.328C612.672 96.992 598.336 111.328 580.672 111.328L436.672 111.328C419.008 111.328 404.672 96.992 404.672 79.328L404.672 47.328ZM404.672 240C404.672 222.336 419.008 208 436.672 208L580.672 208C598.336 208 612.672 222.336 612.672 240L612.672 272C612.672 289.664 598.336 304 580.672 304L436.672 304C419.008 304 404.672 289.664 404.672 272L404.672 240ZM619.328 464.672C619.328 482.336 605.024 496.672 587.328 496.672L443.328 496.672C425.664 496.672 411.328 482.336 411.328 464.672L411.328 432.672C411.328 415.008 425.664 400.672 443.328 400.672L587.328 400.672C605.024 400.672 619.328 415.008 619.328 432.672L619.328 464.672ZM708.672 47.328C708.672 29.664 723.008 15.328 740.672 15.328L884.672 15.328C902.336 15.328 916.672 29.664 916.672 47.328L916.672 79.328C916.672 96.992 902.336 111.328 884.672 111.328L740.672 111.328C723.008 111.328 708.672 96.992 708.672 79.328L708.672 47.328ZM708.672 240C708.672 222.336 723.008 208 740.672 208L884.672 208C902.336 208 916.672 222.336 916.672 240L916.672 272C916.672 289.664 902.336 304 884.672 304L740.672 304C723.008 304 708.672 289.664 708.672 272L708.672 240ZM923.328 464.672C923.328 482.336 908.992 496.672 891.328 496.672L747.328 496.672C729.664 496.672 715.328 482.336 715.328 464.672L715.328 432.672C715.328 415.008 729.664 400.672 747.328 400.672L891.328 400.672C908.992 400.672 923.328 415.008 923.328 432.672L923.328 464.672ZM736 704C709.504 704 688 725.504 688 752L688 848C688 874.528 709.504 896 736 896 762.528 896 784 874.528 784 848L784 752C784 725.504 762.528 704 736 704ZM283.36 704C256.8 704 235.328 725.504 235.328 752L235.328 848C235.328 874.528 256.8 896 283.36 896 309.824 896 331.328 874.528 331.328 848L331.328 752C331.328 725.504 309.824 704 283.36 704Z"  horiz-adv-x="1024" />

    
    <glyph glyph-name="photo" unicode="&#58940;" d="M895.473765 768.018164 127.937834 768.018164c-35.322483 0-63.956637-28.634154-63.956637-63.956637l0-639.614469c0-35.322483 28.634154-63.956637 63.956637-63.956637l767.535931 0c35.322483 0 63.956637 28.634154 63.956637 63.956637L959.430402 704.061526C959.430402 739.38401 930.796248 768.018164 895.473765 768.018164zM159.66442 704.057433l704.08276 0c17.520025 0 31.722492-14.202467 31.722492-31.722492l0-390.218376L684.703387 502.886691c-6.221702 6.221702-14.383592 9.31618-22.538319 9.28855-8.153704 0.027629-16.316617-3.067872-22.538319-9.28855L409.426857 263.242705l-103.836927 51.628868c-5.464455 3.684926-11.663644 5.438872-17.792225 5.421476-8.138354 0.01535-16.281825-3.080152-22.491247-9.289574L127.941927 173.638945 127.941927 672.334941C127.941927 689.854966 142.144394 704.057433 159.66442 704.057433zM895.469672 96.173642c0-17.520025-14.202467-31.722492-31.722492-31.722492L159.66442 64.45115c-13.644765 0-25.27464 8.616238-29.753651 20.702508l164.476005 164.476005 102.55984-50.993394c5.669116-4.225231 12.426007-6.310729 19.172665-6.257517 9.833973-0.068562 19.518542 4.426823 25.742291 12.844539L664.9853 437.791114l230.484372-236.126882L895.469672 96.173642zM287.843754 448.215534c52.986795 0 95.941096 42.954301 95.941096 95.941096s-42.954301 95.941096-95.941096 95.941096c-52.986795 0-95.941096-42.954301-95.941096-95.941096S234.856959 448.215534 287.843754 448.215534zM287.843754 576.136995c17.662265 0 31.980365-14.3181 31.980365-31.980365s-14.3181-31.980365-31.980365-31.980365c-17.662265 0-31.980365 14.3181-31.980365 31.980365S270.181489 576.136995 287.843754 576.136995z"  horiz-adv-x="1024" />

    
    <glyph glyph-name="set" unicode="&#59464;" d="M977.066061 456.17174l0-131.077338 0-10.080589-10.082636-10.080589-110.913089-20.167319c-10.082636-20.167319-20.166295-40.334637-20.166295-50.415226 10.082636-20.167319 30.248931-50.415226 60.497862-80.663134l10.082636-10.080589c0-10.080589 0-10.080589-10.082636-10.080589-10.082636-10.080589-30.248931-40.334637-60.497862-60.495816-30.248931-30.247908-50.415226-40.334637-60.497862-40.334637 0 0-10.082636 0-20.166295 10.080589l-80.664158 60.495816c-20.166295-10.080589-40.332591-20.167319-50.415226-20.167319-10.082636-50.415226-10.082636-90.74884-20.166295-110.910019 0-10.080589-10.082636-20.167319-20.166295-20.167319L452.750571-47.972339c-10.082636 0-10.082636 0-10.082636 10.080589l-10.082636 10.080589-20.166295 110.910019c-20.166295 10.080589-40.331567 10.080589-50.415226 20.167319l-80.664158-60.495816-10.082636-10.080589c-10.082636 0-10.082636 0-10.082636 10.080589-50.415226 40.334637-80.664158 80.663134-100.82943 100.82943l0 10.080589 0 10.080589c10.082636 10.080589 20.166295 20.167319 30.248931 40.334637s20.166295 30.247908 30.248931 40.334637c-10.082636 20.167319-20.166295 40.334637-20.166295 60.495816L89.763396 325.094402c-10.082636 0-10.082636 0-10.082636 10.080589l0 10.080589L79.68076 476.332918l0 10.080589 10.082636 10.080589 110.913089 20.167319c10.082636 20.167319 10.082636 40.334637 20.166295 50.415226-20.166295 20.167319-40.331567 50.415226-60.497862 80.663134l-10.082636 10.080589c0 0 0 10.080589 10.082636 10.080589 10.082636 10.080589 30.248931 40.334637 60.497862 60.495816 30.248931 30.247908 50.415226 40.334637 60.497862 40.334637s10.082636 0 20.166295-10.080589l80.664158-60.495816c20.166295 10.080589 40.331567 20.167319 50.415226 20.167319 10.082636 50.415226 10.082636 90.74884 20.166295 110.910019 0 10.080589 10.082636 20.167319 20.166295 20.167319L603.997274 849.399659c10.082636 0 10.082636 0 10.082636-10.080589s10.082636-10.080589 10.082636-10.080589l20.166295-110.910019c20.166295-10.080589 40.331567-10.080589 50.415226-20.167319l80.664158 60.495816 10.082636 10.080589c10.082636 0 10.082636 0 10.082636-10.080589 50.415226-50.415226 80.664158-80.663134 100.82943-100.82943l0-10.080589 0-10.080589c-10.082636-10.080589-20.166295-20.167319-30.248931-40.334637-10.082636-20.167319-20.166295-30.247908-30.248931-40.334637 10.082636-20.167319 20.166295-40.334637 20.166295-60.495816l110.913089-20.167319c10.082636 0 10.082636 0 10.082636-10.080589C977.066061 466.258469 977.066061 466.258469 977.066061 456.17174zM634.244158 284.765905c30.248931 30.247908 40.332591 70.582545 40.332591 110.910019 0 40.328497-10.082636 80.663134-40.332591 110.910019-30.248931 30.247908-70.580498 40.334637-110.913089 40.334637s-80.664158-10.080589-110.913089-40.334637c-30.248931-30.247908-40.331567-60.495816-40.331567-110.910019s10.082636-80.663134 40.331567-110.910019c30.248931-30.247908 70.580498-40.334637 110.913089-40.334637S603.995227 254.51288 634.244158 284.765905z"  horiz-adv-x="1024" />

    
    <glyph glyph-name="time3" unicode="&#59353;" d="M512 833.610044c-248.312412 0-449.610044-201.297632-449.610044-449.610044s201.297632-449.610044 449.610044-449.610044 449.610044 201.297632 449.610044 449.610044S760.312412 833.610044 512 833.610044zM669.206438 190.997288c-7.993045-7.993045-18.467607-11.989055-28.943193-11.989055s-20.951171 3.996011-28.943193 11.989055L469.421252 332.896088c-0.480954 0.480954-0.948605 0.974188-1.404999 1.477654-0.202615 0.223081-0.39295 0.454348-0.589424 0.680499-0.239454 0.276293-0.483001 0.549515-0.715291 0.832971-0.248663 0.302899-0.485047 0.61296-0.723477 0.920976-0.166799 0.214894-0.336668 0.426719-0.499373 0.644683-0.255827 0.344854-0.499373 0.694825-0.743944 1.045819-0.134053 0.193405-0.272199 0.382717-0.403183 0.578168-0.243547 0.363274-0.474814 0.731664-0.706081 1.101077-0.121773 0.195451-0.246617 0.387833-0.36532 0.585331-0.218988 0.364297-0.427742 0.733711-0.63445 1.104147-0.12075 0.214894-0.243547 0.428765-0.360204 0.645706-0.187265 0.349971-0.364297 0.703011-0.541329 1.056052-0.124843 0.25071-0.252757 0.500397-0.372483 0.754177-0.153496 0.323365-0.296759 0.648776-0.441045 0.975211-0.12996 0.293689-0.260943 0.586354-0.38374 0.884137-0.119727 0.289596-0.232291 0.582261-0.344854 0.873903-0.132006 0.340761-0.264013 0.681522-0.38681 1.026376-0.091074 0.255827-0.174985 0.5137-0.260943 0.77055-0.127913 0.382717-0.254803 0.765433-0.372483 1.153266-0.069585 0.229221-0.130983 0.460488-0.196475 0.691755-0.116657 0.414439-0.232291 0.828878-0.336668 1.248434-0.053212 0.215918-0.100284 0.432859-0.149403 0.648776-0.100284 0.431835-0.198521 0.864694-0.284479 1.301645-0.042979 0.221034-0.078795 0.442068-0.118704 0.663102-0.077771 0.430812-0.154519 0.860601-0.218988 1.295506-0.037862 0.25685-0.065492 0.514723-0.098237 0.771573-0.051165 0.399089-0.104377 0.797156-0.144286 1.199315-0.033769 0.345877-0.054235 0.691755-0.078795 1.038656-0.022513 0.318248-0.053212 0.63445-0.068562 0.954745-0.032746 0.673335-0.051165 1.346671-0.051165 2.02103 0 0.001023 0 0.002047 0 0.00307L457.426057 681.952996c0 22.605857 18.326391 40.932248 40.932248 40.932248 22.606881 0 40.932248-18.326391 40.932248-40.932248l0-303.152415 129.915885-129.915885C685.191504 232.89963 685.191504 206.983377 669.206438 190.997288z"  horiz-adv-x="1024" />

    
    <glyph glyph-name="loading" unicode="&#59488;" d="M943.11424 198.49216l-29.5936 0-26.80832 0-0.09216 0c-16.09728 0-29.17376-12.82048-29.63456-28.80512 0.01024-0.32768 0.0512-0.64512 0.0512-0.96256l0-53.32992c0-16.39424-13.29152-29.68576-29.68576-29.68576L770.9696 85.7088c-16.39424 0-29.68576 13.29152-29.68576 29.68576l0 53.32992c0 0 0 0 0 0.01024l0 0.17408c0 16.08704-12.8 29.14304-28.76416 29.63456-0.3072-0.01024-0.60416-0.0512-0.91136-0.0512l-29.5936 0-26.80832 0-0.09216 0c-16.09728 0-29.17376-12.82048-29.63456-28.80512 0.01024-0.32768 0.0512-0.64512 0.0512-0.96256l0-53.32992c0-16.39424-13.29152-29.68576-29.68576-29.68576L569.1392 85.7088l-29.68576 0L257.4848 85.7088l0 0.04096C143.42144 86.54848 51.2 179.22048 51.2 293.46816c0 113.2544 90.63424 205.25056 203.3152 207.63648l0 0.13312 35.90144 0c13.11744 102.12352 100.31104 181.05344 205.99808 181.05344 114.74944 0 207.7696-93.02016 207.7696-207.7696 0-0.99328-0.11264-2.92864-0.11264-2.92864-2.05824-10.15808-12.86144-17.84832-23.63392-17.84832-10.77248 0-21.97504 7.89504-22.33344 17.80736l0 0c0.03072 1.15712 0.07168 1.96608 0.07168 2.9696 0 90.1632-73.08288 163.24608-163.24608 163.24608s-163.24608-73.08288-163.24608-163.24608c0-0.99328 0 0 0 0 0.83968-8.79616-10.22976-17.80736-17.80736-17.80736l0 0-56.39168 0c-90.1632 0-163.24608-73.09312-163.24608-163.24608 0-90.1632 73.08288-163.24608 163.24608-163.24608l0 0 0 0 252.29312 0 0 38.49216c0 0 0 0 0 0.01024l0 0.17408c0 16.08704-12.8 29.14304-28.76416 29.63456-0.3072-0.01024-0.60416-0.0512-0.91136-0.0512l-56.39168 0c-16.39424 0-29.68576 13.29152-29.68576 29.68576l0 53.32992c0 16.39424 13.29152 29.68576 29.68576 29.68576l56.39168 0c16.39424 0 29.68576-13.29152 29.68576-29.68576L509.78816 254.976l0 0 0-26.90048c0-16.39424 13.29152-29.68576 29.68576-29.68576l20.77696 0 8.81664 0 0 0.09216 26.90048 0c16.0768 0 29.14304 12.8 29.63456 28.75392-0.01024 0.3072-0.0512 0.6144-0.0512 0.9216l0 53.32992c0 16.39424 13.29152 29.68576 29.68576 29.68576l29.58336 0 0 0.09216 26.90048 0c16.0768 0 29.14304 12.8 29.63456 28.75392-0.01024 0.3072-0.0512 0.6144-0.0512 0.9216l0 53.32992c0 16.39424 13.29152 29.68576 29.68576 29.68576l56.39168 0c16.39424 0 29.68576-13.29152 29.68576-29.68576l0-26.53184 0 0 0-26.90048c0-16.39424 13.29152-29.68576 29.68576-29.68576l0 0 20.77696 0 35.61472 0c16.39424 0 29.68576-13.29152 29.68576-29.68576l0-53.32992C972.8 211.78368 959.50848 198.49216 943.11424 198.49216zM857.04704 281.51808l0 0.17408c0 16.08704-12.8 29.14304-28.76416 29.63456-0.3072-0.01024-0.60416-0.0512-0.91136-0.0512l-29.5936 0L770.9696 311.27552l-0.09216 0c-16.09728 0-29.17376-12.82048-29.63456-28.80512 0.01024-0.32768 0.0512-0.64512 0.0512-0.96256L741.29408 254.976l0 0 0-26.90048c0-16.39424 13.29152-29.68576 29.68576-29.68576l0 0 20.77696 0 8.81664 0 0 0.09216 26.90048 0c16.08704 0 29.14304 12.8 29.63456 28.76416-0.01024 0.3072-0.0512 0.60416-0.0512 0.9216L857.05728 281.51808C857.04704 281.50784 857.04704 281.50784 857.04704 281.51808z"  horiz-adv-x="1024" />

    
    <glyph glyph-name="spotagent01" unicode="&#59526;" d="M32.5 383.5c0-265 215-480 480-480S992.5 118.5 992.5 383.5 777.5 863.5 512.5 863.5 32.5 648.5 32.5 383.5z"  horiz-adv-x="1024" />

    
    <glyph glyph-name="car" unicode="&#58967;" d="M1276.424803 426.616349 1261.853889 469.185029c-8.056111 23.580411-33.622742 42.616349-57.203153 42.616349L1151.737819 511.801378C1112.108746 623.14096 1063.613184 757.55248 1049.518962 788.982434c-21.991434 48.956365-92.033517 71.074918-130.629756 81.73695 0 0-64.353547 24.486127-279.087828 24.486127S360.618211 870.719384 360.618211 870.719384c-45.111042-15.079387-107.875613-36.435231-132.790764-83.977407-11.631308-22.372789-60.905468-160.486624-101.043014-274.89293L74.99969 511.849047c-23.516852 0-49.083483-19.067718-57.203153-42.632239l-14.634473-42.56868c-8.056111-23.580411 4.480914-42.632239 27.997766-42.632239l51.133263 0C75.714729 364.821054 71.742288 353.189746 71.742288 353.189746c-4.163118-6.975607-7.086835-38.786916-7.086835-47.367389L64.655453-82.015021a28.4 28.4 0 0 0 45.111042-45.190491L275.163056-127.205512a28.4 28.4 0 0 0 45.111042 45.190491l0 82.626777 639.086339 0 0-82.626777a28.4 28.4 0 0 0 45.111042-45.190491l165.253553 0a28.44 28.44 0 0 0 45.190491 45.190491L1214.915524 305.965365c0 8.564583-2.939606 40.455341-7.086835 47.351499 0 0-4.099559 11.631308-10.80504 30.730805l51.387499 0c23.516852 0 35.974427 19.067718 27.918317 42.56868l0 0ZM319.320713 188.889579l-68.325988 0c-61.223264 0-122.351189 8.246788-122.351189 47.097263L128.643535 283.084104c0 45.444727 26.392899 47.097263 54.835578 47.097263 27.791199 0 82.817454-23.516852 119.062007-39.724412 39.501955-17.637639 83.723171-32.39923 83.723171-61.795295 0-27.092049-15.270064-39.724412-66.84824-39.724412l0 0ZM224.029793 494.608652C257.652536 634.438582 294.278443 713.251816 302.398113 735.24325c6.355906 15.969214 12.711812 65.386382 337.435044 65.386382s332.382099-56.360996 333.160698-57.060145c9.962883-29.920427 49.719074-120.142511 81.482714-248.929055 0 0-137.14456-46.652349-414.72286-46.652349S224.045683 494.608652 224.045683 494.608652l0 0ZM893.481472 228.772888c0 29.459624 44.157656 44.030538 83.659611 61.731736 36.308112 16.175781 91.397927 39.724412 119.062007 39.724412 28.442679 0 54.772019-1.588976 54.772019-47.097263l0-47.160822 0.127118 0c0-38.914034-61.223264-47.033704-122.351189-47.033704L960.266154 188.937248c-51.514617 0-66.737012 12.584694-66.737012 39.81975l0 0Zm0 0"  horiz-adv-x="1280" />

    
    <glyph glyph-name="shezhi2" unicode="&#59465;" d="M855.872 352.368c1.008 10.464 1.632 20.976 1.632 31.632s-0.624 21.168-1.632 31.632l80.208 63.408c17.376 14.208 21.84 38.688 10.704 58.032l-85.536 149.664c-10.848 19.008-34.08 28.128-56.064 19.68l-93.984-38.208c-17.232 12.384-35.28 22.992-53.856 31.68l-14.256 101.568c-3.36 21.984-22.656 38.544-44.832 38.544l-171.12 0c-22.464 0-41.328-16.176-44.88-38.88l-14.208-101.232c-18.624-8.736-36.672-19.344-53.904-31.68l-94.224 38.352c-20.304 7.872-44.88-0.816-55.728-19.824l-85.536-149.616c-11.136-19.488-6.672-43.968 10.992-58.32l79.872-63.168c-1.008-10.416-1.632-20.976-1.632-31.632s0.624-21.216 1.632-31.632l-80.304-63.408c-17.232-14.256-21.696-38.688-10.56-57.984l85.584-149.76c10.896-18.96 34.656-28.08 56.016-19.584l93.984 38.208c17.28-12.384 35.328-22.992 53.856-31.632l14.256-101.712c3.504-22.32 22.368-38.496 44.784-38.496l171.072 0c22.176 0 41.424 16.56 44.928 38.88l14.208 101.28c18.576 8.736 36.624 19.296 53.856 31.68l94.224-38.4c5.28-2.064 10.8-3.072 16.464-3.072 16.128 0 31.2 8.736 39.36 22.896l85.392 149.568c11.184 19.296 6.864 43.776-10.944 58.512l-79.824 63.024zM823.232 106.032l-106.512 43.344c-7.968 3.312-16.992 2.016-23.76-3.264-21.024-16.32-43.488-29.52-66.816-39.216-7.824-3.264-13.344-10.464-14.544-18.864l-15.696-112.08-166.128-2.448-16.032 114.528c-1.152 8.4-6.72 15.552-14.544 18.864-23.136 9.6-45.648 22.848-66.816 39.216-4.272 3.264-9.456 4.992-14.688 4.992-3.024 0-6.096-0.576-9.024-1.776l-102.768-44.304-86.448 146.592 90.336 71.328c6.624 5.232 9.984 13.584 8.928 21.936-1.728 12.864-2.832 25.872-2.832 39.12s1.104 26.256 2.784 39.024c1.104 8.4-2.256 16.704-8.928 21.936l-89.424 68.304 81.84 148.704 106.416-43.296c7.968-3.264 16.992-2.016 23.76 3.216 21.072 16.32 43.632 29.568 66.96 39.36 7.824 3.264 13.296 10.416 14.496 18.816l13.344 111.936 168.48 2.448 16.032-114.48c1.152-8.4 6.72-15.552 14.544-18.816 23.232-9.696 45.744-22.896 66.864-39.264 6.816-5.232 15.84-6.48 23.76-3.264l102.768 44.256 86.496-146.496-90.384-71.424c-6.624-5.232-10.032-13.536-8.976-21.888 1.632-12.864 2.832-25.872 2.832-39.12s-1.152-26.256-2.832-39.12c-1.056-8.352 2.352-16.656 8.976-21.888l89.376-68.208-81.84-148.704zM512.768 564.96c-98.976 0-179.472-81.168-179.472-180.96 0-99.744 80.496-180.96 179.472-180.96 98.976 0 179.424 81.168 179.424 180.96 0 99.792-80.496 180.96-179.424 180.96zM512.768 251.04c-72.48 0-131.472 59.616-131.472 132.96s58.992 132.96 131.472 132.96c72.48 0 131.424-59.664 131.424-132.96s-58.992-132.96-131.424-132.96z"  horiz-adv-x="1024" />

    
    <glyph glyph-name="route" unicode="&#59058;" d="M605.7472 486.4l34.133333 0c9.437867 0 17.066667 7.6288 17.066667 17.066667s-7.6288 17.066667-17.066667 17.066667l-34.133333 0c-9.437867 0-17.066667-7.6288-17.066667-17.066667S596.309333 486.4 605.7472 486.4zM546.048 366.933333c-7.389867 0.017067-14.574933 1.3312-21.367467 3.925333-8.738133 3.328-18.653867-1.058133-22.033067-9.864533-3.345067-8.8064 1.0752-18.670933 9.864533-22.033067 10.683733-4.061867 21.930667-6.144 33.501867-6.161067l6.0928 0c9.437867 0 17.066667 7.6288 17.066667 17.066667s-7.6288 17.066667-17.066667 17.066667L546.048 366.933333zM505.531733 474.862933c3.089067 0 6.1952 0.836267 9.0112 2.577067 7.560533 4.7104 15.9232 7.594667 24.814933 8.584533 9.3696 1.041067 16.128 9.472 15.104 18.8416s-9.403733 16.059733-18.8416 15.104c-14.0288-1.553067-27.204267-6.0928-39.150933-13.550933-8.004267-4.983467-10.427733-15.5136-5.444267-23.517867C494.267733 477.713067 499.831467 474.862933 505.531733 474.862933zM614.280533 213.333333c-1.467733 0-2.9184-0.034133-4.369067-0.1024-9.4208-0.375467-16.725333-8.328533-16.349867-17.749333 0.3584-9.181867 7.936-16.366933 17.032533-16.366933 0.238933 0 0.477867 0 0.7168 0.017067L644.744533 179.2c9.437867 0 17.066667 7.6288 17.066667 17.066667s-7.6288 17.066667-17.066667 17.066667L614.280533 213.333333zM742.280533 486.4c9.437867 0 17.066667 7.6288 17.066667 17.066667s-7.6288 17.066667-17.066667 17.066667l-34.133333 0c-9.437867 0-17.066667-7.6288-17.066667-17.066667s7.6288-17.066667 17.066667-17.066667L742.280533 486.4zM815.4112 213.333333c-9.437867 0-17.066667-7.6288-17.066667-17.066667s7.6288-17.066667 17.066667-17.066667l34.133333 0c9.437867 0 17.066667 7.6288 17.066667 17.066667s-7.6288 17.066667-17.066667 17.066667L815.4112 213.333333zM876.3904 349.866667c0 9.437867-7.6288 17.066667-17.066667 17.066667l-34.133333 0c-9.437867 0-17.066667-7.6288-17.066667-17.066667s7.6288-17.066667 17.066667-17.066667l34.133333 0C868.744533 332.8 876.3904 340.4288 876.3904 349.866667zM713.0112 179.2l34.133333 0c9.437867 0 17.066667 7.6288 17.066667 17.066667s-7.6288 17.066667-17.066667 17.066667l-34.133333 0c-9.437867 0-17.066667-7.6288-17.066667-17.066667S703.5904 179.2 713.0112 179.2zM773.9904 349.866667c0 9.437867-7.6288 17.066667-17.066667 17.066667l-34.133333 0c-9.437867 0-17.066667-7.6288-17.066667-17.066667s7.6288-17.066667 17.066667-17.066667l34.133333 0C766.344533 332.8 773.9904 340.4288 773.9904 349.866667zM620.3904 366.933333c-9.437867 0-17.066667-7.6288-17.066667-17.066667s7.6288-17.066667 17.066667-17.066667l34.133333 0c9.437867 0 17.066667 7.6288 17.066667 17.066667s-7.6288 17.066667-17.066667 17.066667L620.3904 366.933333zM410.692267-93.866667l-34.133333 0c-9.437867 0-17.066667-7.6288-17.066667-17.066667s7.6288-17.066667 17.066667-17.066667l34.133333 0c9.437867 0 17.066667 7.6288 17.066667 17.066667S420.113067-93.866667 410.692267-93.866667zM308.292267-93.866667l-34.133333 0c-9.437867 0-17.066667-7.6288-17.066667-17.066667s7.6288-17.066667 17.066667-17.066667l34.133333 0c9.437867 0 17.066667 7.6288 17.066667 17.066667S317.713067-93.866667 308.292267-93.866667zM897.774933-34.423467c-9.198933 2.065067-18.3296-3.703467-20.394667-12.9024-1.962667-8.704-5.768533-16.708267-11.3152-23.7568-5.819733-7.406933-4.5568-18.141867 2.8672-23.9616 3.140267-2.4576 6.843733-3.652267 10.530133-3.652267 5.0688 0 10.069333 2.235733 13.431467 6.519467 8.6016 10.922667 14.7456 23.825067 17.783467 37.341867C912.7424-45.6192 906.973867-36.488533 897.774933-34.423467zM879.4624-3.7376c3.6864 0 7.424 1.194667 10.530133 3.652267 7.424 5.8368 8.686933 16.571733 2.8672 23.9616-8.584533 10.9056-19.6608 19.9168-32.068267 26.077867-8.482133 4.215467-18.688 0.750933-22.8864-7.68-4.1984-8.448-0.750933-18.688 7.68-22.8864 7.901867-3.908267 14.967467-9.659733 20.4288-16.622933C869.393067-1.501867 874.3936-3.7376 879.4624-3.7376zM803.242667 42.666667c0 9.437867-7.6288 17.066667-17.066667 17.066667l-34.133333 0c-9.437867 0-17.066667-7.6288-17.066667-17.066667s7.6288-17.066667 17.066667-17.066667l34.133333 0C795.5968 25.6 803.242667 33.2288 803.242667 42.666667zM819.080533-93.866667l-32.938667 0c-9.437867 0-17.066667-7.6288-17.066667-17.066667s7.6288-17.066667 17.066667-17.066667l33.6384 0.017067 0.494933 17.066667 0-17.066667c9.437867 0 16.469333 7.6288 16.469333 17.066667C836.744533-101.495467 828.5184-93.866667 819.080533-93.866667zM1014.203733 287.880533c-1.501867 9.3184-10.2912 15.684267-19.5584 14.148267-9.3184-1.4848-15.650133-10.257067-14.148267-19.5584 0.477867-3.037867 0.750933-6.126933 0.7168-9.4208 0-5.7344-0.8192-11.400533-2.423467-16.861867-2.645333-9.045333 2.525867-18.5344 11.588267-21.179733 1.604267-0.4608 3.208533-0.682667 4.795733-0.682667 7.389867 0 14.199467 4.8128 16.384 12.270933 2.5088 8.584533 3.7888 17.476267 3.7888 26.333867C1015.381333 277.845333 1015.005867 282.88 1014.203733 287.880533zM478.3616 386.474667c8.942933 2.952533 13.824 12.5952 10.888533 21.5552-1.962667 5.9904-2.9696 12.253867-2.9696 18.568533 0.017067 2.577067 0.170667 5.154133 0.477867 7.662933 1.1776 9.352533-5.444267 17.902933-14.7968 19.063467-9.642667 1.0752-17.902933-5.4784-19.063467-14.7968-0.477867-3.857067-0.733867-7.7824-0.750933-11.844267 0-10.0352 1.570133-19.899733 4.6592-29.320533 2.372267-7.185067 9.045333-11.741867 16.213333-11.741867C474.794667 385.621333 476.603733 385.877333 478.3616 386.474667zM968.465067 354.338133c-12.1856 7.0656-25.4976 11.2128-39.543467 12.322133-9.3696 0.682667-17.6128-6.263467-18.346667-15.684267-0.733867-9.403733 6.280533-17.6128 15.684267-18.346667 8.9088-0.699733 17.3568-3.328 25.088-7.816533 2.696533-1.570133 5.649067-2.304 8.5504-2.304 5.888 0 11.6224 3.054933 14.779733 8.4992C979.4048 339.1488 976.622933 349.5936 968.465067 354.338133zM944.554667 217.9584C937.233067 214.8864 929.4848 213.333333 921.480533 213.333333l-3.669333 0c-9.437867 0-17.066667-7.6288-17.066667-17.066667s7.6288-17.066667 17.066667-17.066667l3.669333 0c12.561067 0 24.763733 2.4576 36.266667 7.287467 8.704 3.652267 12.782933 13.653333 9.130667 22.340267C963.242667 217.514667 953.173333 221.610667 944.554667 217.9584zM555.605333 130.747733c1.6896 8.772267 5.239467 16.878933 10.564267 24.1152 5.5808 7.5776 3.959467 18.261333-3.6352 23.8592-7.594667 5.563733-18.261333 3.959467-23.8592-3.6352-8.3456-11.3664-13.943467-24.1152-16.605867-37.922133-1.774933-9.250133 4.283733-18.193067 13.550933-19.985067 1.0752-0.2048 2.167467-0.3072 3.2256-0.3072C546.8672 116.906667 554.018133 122.589867 555.605333 130.747733zM582.3488 32.529067c6.485333 0 12.663467 3.703467 15.530667 9.966933 3.908267 8.584533 0.1536 18.705067-8.413867 22.613333-8.004267 3.669333-15.2576 9.181867-20.957867 15.9744-6.075733 7.2192-16.827733 8.157867-24.046933 2.082133-7.2192-6.058667-8.157867-16.827733-2.082133-24.046933 8.942933-10.632533 20.309333-19.3024 32.887467-25.0368C577.570133 33.041067 579.976533 32.529067 582.3488 32.529067zM513.092267-93.866667l-34.133333 0c-9.437867 0-17.066667-7.6288-17.066667-17.066667s7.6288-17.066667 17.066667-17.066667l34.133333 0c9.437867 0 17.066667 7.6288 17.066667 17.066667S522.513067-93.866667 513.092267-93.866667zM615.492267-93.866667l-34.133333 0c-9.437867 0-17.066667-7.6288-17.066667-17.066667s7.6288-17.066667 17.066667-17.066667l34.133333 0c9.437867 0 17.066667 7.6288 17.066667 17.066667S624.913067-93.866667 615.492267-93.866667zM700.842667 42.666667c0 9.437867-7.6288 17.066667-17.066667 17.066667l-34.133333 0c-9.437867 0-17.066667-7.6288-17.066667-17.066667s7.6288-17.066667 17.066667-17.066667l34.133333 0C693.1968 25.6 700.842667 33.2288 700.842667 42.666667zM717.892267-93.866667l-34.133333 0c-9.437867 0-17.066667-7.6288-17.066667-17.066667s7.6288-17.066667 17.066667-17.066667l34.133333 0c9.437867 0 17.066667 7.6288 17.066667 17.066667S727.313067-93.866667 717.892267-93.866667zM358.7584 401.4592C320 445.2352 268.322133 469.333333 213.213867 469.333333s-106.786133-24.098133-145.527467-67.874133c-78.711467-88.9344-78.711467-233.608533 0-322.542933l145.527467-164.4032 145.527467 164.4032C437.469867 167.850667 437.469867 312.5248 358.7584 401.4592zM213.213867 162.133333c-56.4736 0-102.4 45.9264-102.4 102.4s45.9264 102.4 102.4 102.4 102.4-45.9264 102.4-102.4S269.687467 162.133333 213.213867 162.133333zM831.9488 477.7472l110.318933 124.347733c59.357867 66.901333 59.357867 175.7184 0 242.619733C912.913067 877.789867 873.728 896 831.931733 896c-41.7792 0-80.964267-18.210133-110.318933-51.285333-59.3408-66.901333-59.3408-175.7184 0-242.619733L831.9488 477.7472zM836.1472 827.733333c51.746133 0 93.866667-42.120533 93.866667-93.866667s-42.120533-93.866667-93.866667-93.866667-93.866667 42.120533-93.866667 93.866667S784.401067 827.733333 836.1472 827.733333z"  horiz-adv-x="1024" />

    
    <glyph glyph-name="diamond" unicode="&#59354;" d="M1115.139868 583.097958C1045.95497 681.477552 976.767841 779.899654 907.57739 878.300501 901.415595 888.031323 890.233879 894.936496 878.752154 894.936496L542.080523 894.936496 521.166894 894.936496 215.182313 894.936496C204.892843 894.936496 197.10662 891.079748 191.75647 885.258286 191.577338 885.073556 191.399344 884.891102 191.220213 884.700774 191.155314 884.619036 191.084772 884.544034 191.015367 884.462296 189.399905 882.71253 187.874008 880.735437 186.493656 878.488599 125.868578 780.029542 65.265892 681.542497 4.641951 583.097958-3.193515 570.362357-0.431673 555.297087 8.20984 545.055767 8.723706 544.292227 9.261056 543.53879 9.834268 542.808883 181.455804 323.289998 353.060591 103.711812 524.669838-115.800337 532.175076-125.406913 541.317029-128.429579 549.969783-127.086182 557.474975-127.097378 565.144781-123.804877 571.673805-115.800337 751.082701 103.711812 930.521816 323.289998 1109.935218 542.808883 1110.86105 543.939607 1111.690627 545.116206 1112.464225 546.317426 1120.776602 556.601298 1123.582089 571.086711 1115.139868 583.097958L1115.139868 583.097958 1115.139868 583.097958ZM1022.544828 599.566017 817.966967 599.566017C841.339062 663.320121 864.704466 727.079868 888.077699 790.833971 932.899681 727.085466 977.71611 663.324626 1022.544828 599.566017L1022.544828 599.566017 1022.544828 599.566017ZM548.134866 812.846967C596.8237 741.765621 645.51135 670.66302 694.200183 599.566017L397.584794 599.566017C447.763706 670.66302 497.940343 741.755563 548.134866 812.846967L548.134866 812.846967 548.134866 812.846967ZM723.005258 533.088165C665.007718 374.876114 607.004535 216.66411 549.018192 58.429668 492.622643 217.156676 436.016606 375.477316 377.314873 533.088165L723.005258 533.088165 723.005258 533.088165 723.005258 533.088165ZM756.861656 625.445865C710.511502 693.11042 664.168084 760.78394 617.824666 828.459736L831.271276 828.459736C806.470679 760.789538 781.662254 693.11488 756.861656 625.445865L756.861656 625.445865 756.861656 625.445865ZM339.869377 632.674532C315.055309 698.081052 289.804652 763.345397 263.989794 828.458598L478.055492 828.458598C431.994197 763.204358 385.930672 697.940014 339.869377 632.674532L339.869377 632.674532 339.869377 632.674532ZM208.88394 788.066532C233.593833 725.368104 257.789906 662.529775 281.599772 599.571615L92.840664 599.571615C131.52661 662.404392 170.209189 725.239353 208.88394 788.066532L208.88394 788.066532 208.88394 788.066532ZM306.592927 533.088165C367.324319 370.512236 425.765228 207.16949 483.958693 43.412503 356.364288 206.635463 228.775481 369.861791 101.20233 533.088165L306.592927 533.088165 306.592927 533.088165 306.592927 533.088165ZM793.598498 533.088165 1016.576683 533.088165C881.786015 368.165729 747.009911 203.250074 612.2349 38.338879 672.680846 203.255671 733.141356 368.171327 793.598498 533.088165L793.598498 533.088165 793.598498 533.088165Z"  horiz-adv-x="1125" />

    
    <glyph glyph-name="500px" unicode="&#58880;" d="M873.714286 12l-3.428571-3.428571q-64.571429-65.142857-148-100-88-36.571429-181.142857-36.571429-94.285714 0-181.142857 36.571429-84.571429 36-148 100-64.571429 64-100 147.428571-24 58.857143-30.857143 108-2.285714 16 27.428571 20.571429 29.142857 4.571429 32-11.428571 0.571429-0.571429 0.571429-2.285714 10.285714-51.428571 26.285714-90.857143 28.571429-70.857143 86.857143-129.142857 56-56 129.142857-86.857143 75.428571-32 157.714286-32 81.714286 0 157.714286 32 73.142857 31.428571 128.571429 86.857143l3.428571 3.428571q5.714286 5.714286 14.285714 3.428571 6.857143-1.714286 18.857143-12.571429 20.571429-21.142857 9.714286-33.142857zm-269.714286 351.428571l-37.714286-37.714286 36-36q12-12-4-28-9.714286-9.714286-18.285714-9.714286-5.714286 0-10.857143 5.714286l-35.428571 34.857143-37.714286-37.714286q-2.857143-2.857143-8.571429-2.857143-8.571429 0-17.714286 9.142857l-1.142857 1.142857q-10.285714 8.571429-10.285714 16.571429 0 4 4.571429 9.714286l37.714286 37.142857-37.714286 37.714286q-9.142857 9.142857 8 25.714286 10.285714 10.285714 17.714286 10.285714 3.428571 0 7.428571-2.857143l37.142857-37.714286 37.142857 37.142857q10.285714 9.714286 27.428571-7.428571 15.428571-15.428571 6.285714-25.142857zm269.142857-32.571429q0-67.428571-26.285714-130.285714-25.714286-60-72-106.285714-45.714286-45.714286-106.857143-72t-130.285714-26.285714-130.285714 26.285714-106.857143 72q-46.857143 46.857143-71.428571 106.285714-8.571429 18.285714-8.571429 22.857143l-0.571429 0q-5.142857 15.428571 24.571429 25.142857 28.571429 9.142857 34.285714-6.857143 21.142857-56.571429 55.428571-95.428571l0.571429 0 0 194.857143q1.714286 77.714286 58.285714 132.571429 60 58.857143 144.571429 58.857143 84 0 143.428571-58.857143t59.428571-142.285714q0-84-59.714286-143.428571t-143.142857-59.428571q-33.142857 0-64 9.142857-16 6.285714-7.428571 34.857143 9.142857 29.142857 25.142857 24.571429l8-1.714286q8-1.714286 18.571429-3.428571t17.428571-1.714286q59.428571 0 100.571429 40.857143t41.142857 99.714286q0 57.714286-41.142857 97.714286-40.571429 40.571429-100 40.571429-61.142857 0-101.714286-45.714286-36.571429-41.142857-36.571429-91.428571l0-236q62.857143-38.285714 138.285714-38.285714 54.857143 0 105.714286 20.857143t89.142857 59.142857 59.142857 88.571429 20.857143 104.571429q0 113.142857-80.571429 193.714286-80 80-193.714286 80-114.285714 0-194.285714-80-30.285714-30.285714-44-49.714286l-1.142857-1.142857q-4.571429-6.285714-7.428571-8.857143t-12.285714-5.428571-22 1.714286q-12 2.857143-20.857143 9.428571t-8.857143 15.142857l0 388.571429q0 8.571429 6 15.142857t15.714286 6.571429l501.142857 0q17.142857 0 17.142857-31.428571t-17.142857-31.428571l-463.428571 0 0-276 0.571429 0q22.857143 24 58.285714 48t61.714286 34.857143q62.285714 26.285714 132 26.285714 69.142857 0 130.285714-26.285714t106.857143-72q46.285714-46.285714 72-106.285714 26.285714-64 26.285714-130.857143zm-17.714286 332q5.142857-4.571429 5.142857-10.285714t-3.142857-10.285714-9.428571-12q-14.857143-14.857143-22.285714-14.857143-5.142857 0-9.142857 4-60.571429 52-118.285714 76-73.142857 32-157.714286 32-76 0-149.714286-28-15.428571-5.714286-25.714286 21.142857-5.142857 14.285714-4.571429 21.714286 1.714286 9.142857 9.142857 11.428571 74.285714 32.571429 170.857143 32.571429 93.714286 0 180.571429-36.571429 78.285714-33.142857 134.285714-86.857143z"  horiz-adv-x="1024" />

    
    <glyph glyph-name="adjust" unicode="&#58881;" d="M512 73.142857l0 621.714286q-84.571429 0-156-41.714286t-113.142857-113.142857-41.714286-156 41.714286-156 113.142857-113.142857 156-41.714286zm438.857143 310.857143q0-119.428571-58.857143-220.285714t-159.714286-159.714286-220.285714-58.857143-220.285714 58.857143-159.714286 159.714286-58.857143 220.285714 58.857143 220.285714 159.714286 159.714286 220.285714 58.857143 220.285714-58.857143 159.714286-159.714286 58.857143-220.285714z"  horiz-adv-x="1024" />

    
    <glyph glyph-name="adn" unicode="&#58882;" d="M512 540.571429l114.857143-174.857143-229.714286 0zm208.571429-302.857143l53.714286 0-262.285714 394.857143-262.285714-394.857143 53.714286 0 59.428571 91.428571 298.285714 0zm230.285714 146.285714q0-119.428571-58.857143-220.285714t-159.714286-159.714286-220.285714-58.857143-220.285714 58.857143-159.714286 159.714286-58.857143 220.285714 58.857143 220.285714 159.714286 159.714286 220.285714 58.857143 220.285714-58.857143 159.714286-159.714286 58.857143-220.285714z"  horiz-adv-x="1024" />

    
    <glyph glyph-name="aligncenter" unicode="&#58883;" d="M1024 128l0-73.142857q0-14.857143-10.857143-25.714286t-25.714286-10.857143l-950.857143 0q-14.857143 0-25.714286 10.857143t-10.857143 25.714286l0 73.142857q0 14.857143 10.857143 25.714286t25.714286 10.857143l950.857143 0q14.857143 0 25.714286-10.857143t10.857143-25.714286zm-219.428571 219.428571l0-73.142857q0-14.857143-10.857143-25.714286t-25.714286-10.857143l-512 0q-14.857143 0-25.714286 10.857143t-10.857143 25.714286l0 73.142857q0 14.857143 10.857143 25.714286t25.714286 10.857143l512 0q14.857143 0 25.714286-10.857143t10.857143-25.714286zm146.285714 219.428571l0-73.142857q0-14.857143-10.857143-25.714286t-25.714286-10.857143l-804.571429 0q-14.857143 0-25.714286 10.857143t-10.857143 25.714286l0 73.142857q0 14.857143 10.857143 25.714286t25.714286 10.857143l804.571429 0q14.857143 0 25.714286-10.857143t10.857143-25.714286zm-219.428571 219.428571l0-73.142857q0-14.857143-10.857143-25.714286t-25.714286-10.857143l-365.714286 0q-14.857143 0-25.714286 10.857143t-10.857143 25.714286l0 73.142857q0 14.857143 10.857143 25.714286t25.714286 10.857143l365.714286 0q14.857143 0 25.714286-10.857143t10.857143-25.714286z"  horiz-adv-x="1024" />

    
    <glyph glyph-name="alignjustify" unicode="&#58884;" d="M1024 128l0-73.142857q0-14.857143-10.857143-25.714286t-25.714286-10.857143l-950.857143 0q-14.857143 0-25.714286 10.857143t-10.857143 25.714286l0 73.142857q0 14.857143 10.857143 25.714286t25.714286 10.857143l950.857143 0q14.857143 0 25.714286-10.857143t10.857143-25.714286zm0 219.428571l0-73.142857q0-14.857143-10.857143-25.714286t-25.714286-10.857143l-950.857143 0q-14.857143 0-25.714286 10.857143t-10.857143 25.714286l0 73.142857q0 14.857143 10.857143 25.714286t25.714286 10.857143l950.857143 0q14.857143 0 25.714286-10.857143t10.857143-25.714286zm0 219.428571l0-73.142857q0-14.857143-10.857143-25.714286t-25.714286-10.857143l-950.857143 0q-14.857143 0-25.714286 10.857143t-10.857143 25.714286l0 73.142857q0 14.857143 10.857143 25.714286t25.714286 10.857143l950.857143 0q14.857143 0 25.714286-10.857143t10.857143-25.714286zm0 219.428571l0-73.142857q0-14.857143-10.857143-25.714286t-25.714286-10.857143l-950.857143 0q-14.857143 0-25.714286 10.857143t-10.857143 25.714286l0 73.142857q0 14.857143 10.857143 25.714286t25.714286 10.857143l950.857143 0q14.857143 0 25.714286-10.857143t10.857143-25.714286z"  horiz-adv-x="1024" />

    
    <glyph glyph-name="alignleft" unicode="&#58885;" d="M1024 128l0-73.142857q0-14.857143-10.857143-25.714286t-25.714286-10.857143l-950.857143 0q-14.857143 0-25.714286 10.857143t-10.857143 25.714286l0 73.142857q0 14.857143 10.857143 25.714286t25.714286 10.857143l950.857143 0q14.857143 0 25.714286-10.857143t10.857143-25.714286zm-219.428571 219.428571l0-73.142857q0-14.857143-10.857143-25.714286t-25.714286-10.857143l-731.428571 0q-14.857143 0-25.714286 10.857143t-10.857143 25.714286l0 73.142857q0 14.857143 10.857143 25.714286t25.714286 10.857143l731.428571 0q14.857143 0 25.714286-10.857143t10.857143-25.714286zm146.285714 219.428571l0-73.142857q0-14.857143-10.857143-25.714286t-25.714286-10.857143l-877.714286 0q-14.857143 0-25.714286 10.857143t-10.857143 25.714286l0 73.142857q0 14.857143 10.857143 25.714286t25.714286 10.857143l877.714286 0q14.857143 0 25.714286-10.857143t10.857143-25.714286zm-219.428571 219.428571l0-73.142857q0-14.857143-10.857143-25.714286t-25.714286-10.857143l-658.285714 0q-14.857143 0-25.714286 10.857143t-10.857143 25.714286l0 73.142857q0 14.857143 10.857143 25.714286t25.714286 10.857143l658.285714 0q14.857143 0 25.714286-10.857143t10.857143-25.714286z"  horiz-adv-x="1024" />

    
    <glyph glyph-name="alignright" unicode="&#58886;" d="M1024 128l0-73.142857q0-14.857143-10.857143-25.714286t-25.714286-10.857143l-950.857143 0q-14.857143 0-25.714286 10.857143t-10.857143 25.714286l0 73.142857q0 14.857143 10.857143 25.714286t25.714286 10.857143l950.857143 0q14.857143 0 25.714286-10.857143t10.857143-25.714286zm0 219.428571l0-73.142857q0-14.857143-10.857143-25.714286t-25.714286-10.857143l-731.428571 0q-14.857143 0-25.714286 10.857143t-10.857143 25.714286l0 73.142857q0 14.857143 10.857143 25.714286t25.714286 10.857143l731.428571 0q14.857143 0 25.714286-10.857143t10.857143-25.714286zm0 219.428571l0-73.142857q0-14.857143-10.857143-25.714286t-25.714286-10.857143l-877.714286 0q-14.857143 0-25.714286 10.857143t-10.857143 25.714286l0 73.142857q0 14.857143 10.857143 25.714286t25.714286 10.857143l877.714286 0q14.857143 0 25.714286-10.857143t10.857143-25.714286zm0 219.428571l0-73.142857q0-14.857143-10.857143-25.714286t-25.714286-10.857143l-658.285714 0q-14.857143 0-25.714286 10.857143t-10.857143 25.714286l0 73.142857q0 14.857143 10.857143 25.714286t25.714286 10.857143l658.285714 0q14.857143 0 25.714286-10.857143t10.857143-25.714286z"  horiz-adv-x="1024" />

    
    <glyph glyph-name="amazon" unicode="&#58887;" d="M886.285714 52.571429q8.571429 3.428571 14.857143 1.714286t6.285714-10-8.571429-19.142857q-7.428571-9.142857-25.142857-24.857143t-54.571429-38.857143-80.571429-42.285714-107.428571-33.142857-131.142857-14q-68 0-136 17.714286t-119.428571 43.714286-98.571429 59.428571-75.714286 60-48 50q-4.571429 5.142857-5.714286 9.428571t0.571429 6.857143 4.571429 4 6.571429 1.142857 6.571429-2.571429q109.714286-66.857143 171.428571-94.857143 222.285714-100.571429 456.571429-51.428571 108.571429 22.857143 223.428571 77.142857zm118.285714 65.714286q6.285714-9.142857 1.428571-39.714286t-16.285714-58.571429q-19.428571-47.428571-48.571429-70.857143-9.714286-8-14.857143-5.142857t0 13.714286q12 25.714286 25.428571 69.428571t3.714286 56.285714q-2.857143 4-8.857143 6.571429t-15.428571 3.428571-16.857143 1.428571-20 0-18-1.142857-17.714286-1.714286-12.857143-1.142857q-3.428571-0.571429-7.428571-0.857143t-6.285714-0.571429-4.857143-0.571429-4-2.857143l-5.714286 0-1.714286-2.857143-1.142857 0.857143-0.857143 1.714286q-3.428571 9.142857 26.857143 22.857143t58.857143 17.142857q26.285714 4 61.714286 0.571429t43.428571-13.714286zm-225.142857 253.142857q0-17.714286 7.714286-36.571429t18.285714-33.142857 21.428571-26.285714 18.857143-18.285714l7.428571-6.285714-129.714286-128q-22.857143 21.142857-45.142857 43.142857t-33.142857 33.428571l-10.857143 11.428571q-6.285714 6.285714-14.285714 18.857143-21.714286-33.714286-55.714286-58.571429t-72.857143-36.285714-80-13.142857-78.571429 12-67.142857 37.428571-47.428571 64.571429-17.714286 92.857143q0 48 16 88t41.142857 66.571429 60.857143 47.428571 70 32.571429 74.285714 19.714286 68.285714 10.571429 56.857143 3.714286l0 72.571429q0 37.142857-12 55.428571-19.428571 30.285714-69.142857 30.285714-3.428571 0-9.428571-0.571429t-23.142857-6.857143-32-16.857143-32-34-27.428571-54.857143l-168 15.428571q0 34.285714 12.571429 68t38.285714 64.571429 61.714286 54.285714 86.571429 37.428571 108.857143 14q57.142857 0 103.428571-14.285714t74-35.142857 46.285714-47.428571 25.714286-49.142857 7.142857-42l0-336.571429zm-384-12q0-49.142857 40-76 37.714286-25.142857 79.428571-12.571429 48 14.285714 65.142857 70.285714 8 25.714286 8 57.714286l0 92.571429q-33.714286-1.142857-63.428571-6.857143t-60.857143-19.142857-49.714286-40.571429-18.571429-65.428571z"  horiz-adv-x="1024" />

    
    <glyph glyph-name="ambulance" unicode="&#58888;" d="M329.142857 91.428571q0 30.285714-21.428571 51.714286t-51.714286 21.428571-51.714286-21.428571-21.428571-51.714286 21.428571-51.714286 51.714286-21.428571 51.714286 21.428571 21.428571 51.714286zm-219.428571 292.571429l219.428571 0 0 146.285714-90.285714 0q-8-1.142857-12.571429-5.142857l-111.428571-111.428571q-4-6.857143-5.142857-12.571429l0-17.142857zm731.428571-292.571429q0 30.285714-21.428571 51.714286t-51.714286 21.428571-51.714286-21.428571-21.428571-51.714286 21.428571-51.714286 51.714286-21.428571 51.714286 21.428571 21.428571 51.714286zm73.142857 384l0 109.714286q0 8-5.142857 13.142857t-13.142857 5.142857l-128 0 0 128q0 8-5.142857 13.142857t-13.142857 5.142857l-109.714286 0q-8 0-13.142857-5.142857t-5.142857-13.142857l0-128-128 0q-8 0-13.142857-5.142857t-5.142857-13.142857l0-109.714286q0-8 5.142857-13.142857t13.142857-5.142857l128 0 0-128q0-8 5.142857-13.142857t13.142857-5.142857l109.714286 0q8 0 13.142857 5.142857t5.142857 13.142857l0 128 128 0q8 0 13.142857 5.142857t5.142857 13.142857zm146.285714 310.857143l0-658.285714q0-14.857143-10.857143-25.714286t-25.714286-10.857143l-109.714286 0q0-60.571429-42.857143-103.428571t-103.428571-42.857143-103.428571 42.857143-42.857143 103.428571l-219.428571 0q0-60.571429-42.857143-103.428571t-103.428571-42.857143-103.428571 42.857143-42.857143 103.428571l-73.142857 0q-14.857143 0-25.714286 10.857143t-10.857143 25.714286 10.857143 25.714286 25.714286 10.857143l0 237.714286q0 14.857143 7.428571 33.142857t18.285714 29.142857l113.142857 113.142857q10.857143 10.857143 29.142857 18.285714t33.142857 7.428571l91.428571 0 0 182.857143q0 14.857143 10.857143 25.714286t25.714286 10.857143l658.285714 0q14.857143 0 25.714286-10.857143t10.857143-25.714286z"  horiz-adv-x="1061" />

    
    <glyph glyph-name="anchor" unicode="&#58889;" d="M548.571429 749.714286q0 14.857143-10.857143 25.714286t-25.714286 10.857143-25.714286-10.857143-10.857143-25.714286 10.857143-25.714286 25.714286-10.857143 25.714286 10.857143 10.857143 25.714286zm475.428571-530.285714l0-201.142857q0-12.571429-11.428571-17.142857-4.571429-1.142857-6.857143-1.142857-7.428571 0-13.142857 5.142857l-53.142857 53.142857q-68-81.714286-182-129.428571t-245.428571-47.714286-245.428571 47.714286-182 129.428571l-53.142857-53.142857q-5.142857-5.142857-13.142857-5.142857-2.285714 0-6.857143 1.142857-11.428571 4.571429-11.428571 17.142857l0 201.142857q0 8 5.142857 13.142857t13.142857 5.142857l201.142857 0q12.571429 0 17.142857-11.428571 4.571429-10.857143-4-20l-57.142857-57.142857q38.285714-52 108.285714-87.714286t155.142857-47.142857l0 369.714286-109.714286 0q-14.857143 0-25.714286 10.857143t-10.857143 25.714286l0 73.142857q0 14.857143 10.857143 25.714286t25.714286 10.857143l109.714286 0 0 93.142857q-33.142857 19.428571-53.142857 52.857143t-20 73.428571q0 60.571429 42.857143 103.428571t103.428571 42.857143 103.428571-42.857143 42.857143-103.428571q0-40-20-73.428571t-53.142857-52.857143l0-93.142857 109.714286 0q14.857143 0 25.714286-10.857143t10.857143-25.714286l0-73.142857q0-14.857143-10.857143-25.714286t-25.714286-10.857143l-109.714286 0 0-369.714286q85.142857 11.428571 155.142857 47.142857t108.285714 87.714286l-57.142857 57.142857q-8.571429 9.142857-4 20 4.571429 11.428571 17.142857 11.428571l201.142857 0q8 0 13.142857-5.142857t5.142857-13.142857z"  horiz-adv-x="1024" />

    
    <glyph glyph-name="android" unicode="&#58890;" d="M391.428571 620q9.142857 0 15.714286 6.571429t6.571429 15.714286-6.571429 15.714286-15.714286 6.571429-15.428571-6.571429-6.285714-15.714286 6.285714-15.714286 15.428571-6.571429zm241.142857 0q9.142857 0 15.428571 6.571429t6.285714 15.714286-6.285714 15.714286-15.428571 6.571429-15.714286-6.571429-6.571429-15.714286 6.571429-15.714286 15.714286-6.571429zm-464-105.142857q24 0 41.142857-17.142857t17.142857-41.142857l0-245.714286q0-24.571429-16.857143-41.714286t-41.428571-17.142857-41.714286 17.142857-17.142857 41.714286l0 245.714286q0 24 17.142857 41.142857t41.714286 17.142857zm605.714286-10.857143l0-380.571429q0-26.285714-18.285714-44.571429t-44-18.285714l-42.857143 0 0-129.714286q0-24.571429-17.142857-41.714286t-41.714286-17.142857-41.714286 17.142857-17.142857 41.714286l0 129.714286-78.857143 0 0-129.714286q0-24.571429-17.142857-41.714286t-41.714286-17.142857q-24 0-41.142857 17.142857t-17.142857 41.714286l-0.571429 129.714286-42.285714 0q-26.285714 0-44.571429 18.285714t-18.285714 44.571429l0 380.571429 524.571429 0zm-132.571429 231.428571q61.142857-31.428571 97.714286-87.714286t36.571429-123.142857l-528.571429 0q0 66.857143 36.571429 123.142857t98.285714 87.714286l-40.571429 74.857143q-4 7.428571 2.857143 11.428571 7.428571 3.428571 11.428571-3.428571l41.142857-75.428571q54.285714 24 114.857143 24t114.857143-24l41.142857 75.428571q4 6.857143 11.428571 3.428571 6.857143-4 2.857143-11.428571zm272.571429-278.857143l0-245.714286q0-24.571429-17.142857-41.714286t-41.714286-17.142857q-24 0-41.142857 17.142857t-17.142857 41.714286l0 245.714286q0 24.571429 17.142857 41.428571t41.142857 16.857143q24.571429 0 41.714286-16.857143t17.142857-41.428571z"  horiz-adv-x="1024" />

    
    <glyph glyph-name="angellist" unicode="&#58891;" d="M690.857143 680l-65.142857-187.428571 66.857143-12q94.285714 257.714286 94.285714 296 0 32-21.714286 32-32.571429 0-74.285714-128.571429zm-170.857143-392.571429l18.857143-50.285714q21.142857 24 40.571429 38.285714l-18.857143 3.142857-22 4-18.571429 4.857143zm-166.857143 512q0-56 90.857143-297.714286 10.285714 5.714286 28 5.714286 8.571429 0 42.857143-2.857143l-69.142857 200.571429q-42.857143 125.714286-70.285714 125.714286-10.857143 0-16.571429-10t-5.714286-21.428571zm-45.142857-433.714286q0-20.571429 29.428571-68t67.142857-87.428571 57.142857-40q8 0 14.571429 7.428571t6.571429 15.428571q0 13.714286-18.285714 58.285714-7.428571 18.285714-18.285714 41.142857t-27.142857 50.857143-35.142857 46.285714-35.428571 18.285714q-11.428571 0-26-15.428571t-14.571429-26.857143zm-90.285714-191.428571q0-23.428571 14.285714-59.428571 33.714286-82.857143 104.857143-129.714286t160.857143-46.857143q129.714286 0 218.285714 97.142857 86.857143 96.571429 86.857143 244 0 24.571429-0.571429 38.285714t-6.571429 35.428571-17.428571 32q-32 28-120.857143 43.142857t-154.571429 15.142857q-21.142857 0-28-6.285714-6.857143-2.857143-6.857143-20 0-19.428571 12.285714-34.285714t31.714286-22.857143 44.285714-13.428571 50-6.571429 48.571429-2.285714 40 0l13.142857 0q13.714286 0 22.857143-10.857143 8.571429-10.857143 10.857143-31.428571-16-16-54.857143-30.857143-34.857143-12.571429-53.142857-26.285714-36.571429-26.285714-62-65.142857t-25.428571-78.285714q0-17.714286 10.571429-50.571429t10.571429-50l-1.714286-6.857143q-2.285714-6.857143-2.285714-8-78.285714 5.714286-83.428571 123.428571-4.571429-1.142857-23.428571-1.142857 1.142857-4 1.142857-12 0-30.285714-23.142857-51.142857t-54-20.857143q-46.857143 0-95.142857 44.571429t-48.285714 90.857143q0 19.428571 18.857143 38.285714 29.714286-36.571429 34.285714-43.428571 44-59.428571 76-59.428571 6.857143 0 15.142857 4.857143t8.285714 11.714286q0 19.428571-50 82.857143t-66.571429 63.428571q-24.571429 0-40-25.428571t-15.428571-51.714286zm-65.142857-5.142857q0 57.714286 24.285714 93.142857t78 50.285714q-16 42.285714-16 59.428571 0 35.428571 34.857143 70.285714t69.714286 34.857143q16.571429 0 40-8.571429-93.142857 264-93.142857 324 0 45.714286 23.428571 74.571429t68 28.857143q74.857143 0 185.714286-332 3.428571-9.714286 4.571429-13.142857 3.428571 9.142857 16.571429 45.428571t24.857143 67.714286 30.857143 72.857143 36.857143 70.285714 40.285714 49.428571 43.714286 20.571429q40.571429 0 64-28t23.428571-69.714286q0-61.714286-90.857143-314.285714 34.857143-8.571429 57.428571-26.285714t33.428571-44.571429 14.857143-53.428571 4-63.142857q0-85.714286-26.857143-160t-75.428571-128.571429-120.571429-85.714286-158.857143-31.428571q-63.428571 0-127.428571 24-85.142857 32.571429-147.428571 109.428571t-62.285714 163.714286z"  horiz-adv-x="1024" />

    
    <glyph glyph-name="angledoubledown" unicode="&#58892;" d="M797.142857 402.285714q0-7.428571-5.714286-13.142857l-266.285714-266.285714q-5.714286-5.714286-13.142857-5.714286t-13.142857 5.714286l-266.285714 266.285714q-5.714286 5.714286-5.714286 13.142857t5.714286 13.142857l28.571429 28.571429q5.714286 5.714286 13.142857 5.714286t13.142857-5.714286l224.571429-224.571429 224.571429 224.571429q5.714286 5.714286 13.142857 5.714286t13.142857-5.714286l28.571429-28.571429q5.714286-5.714286 5.714286-13.142857zm0 219.428571q0-7.428571-5.714286-13.142857l-266.285714-266.285714q-5.714286-5.714286-13.142857-5.714286t-13.142857 5.714286l-266.285714 266.285714q-5.714286 5.714286-5.714286 13.142857t5.714286 13.142857l28.571429 28.571429q5.714286 5.714286 13.142857 5.714286t13.142857-5.714286l224.571429-224.571429 224.571429 224.571429q5.714286 5.714286 13.142857 5.714286t13.142857-5.714286l28.571429-28.571429q5.714286-5.714286 5.714286-13.142857z"  horiz-adv-x="1024" />

    
    <glyph glyph-name="angledoubleleft" unicode="&#58893;" d="M577.714286 109.714286q0-7.428571-5.714286-13.142857l-28.571429-28.571429q-5.714286-5.714286-13.142857-5.714286t-13.142857 5.714286l-266.285714 266.285714q-5.714286 5.714286-5.714286 13.142857t5.714286 13.142857l266.285714 266.285714q5.714286 5.714286 13.142857 5.714286t13.142857-5.714286l28.571429-28.571429q5.714286-5.714286 5.714286-13.142857t-5.714286-13.142857l-224.571429-224.571429 224.571429-224.571429q5.714286-5.714286 5.714286-13.142857zm219.428571 0q0-7.428571-5.714286-13.142857l-28.571429-28.571429q-5.714286-5.714286-13.142857-5.714286t-13.142857 5.714286l-266.285714 266.285714q-5.714286 5.714286-5.714286 13.142857t5.714286 13.142857l266.285714 266.285714q5.714286 5.714286 13.142857 5.714286t13.142857-5.714286l28.571429-28.571429q5.714286-5.714286 5.714286-13.142857t-5.714286-13.142857l-224.571429-224.571429 224.571429-224.571429q5.714286-5.714286 5.714286-13.142857z"  horiz-adv-x="1024" />

    
    <glyph glyph-name="angledoubleright" unicode="&#58894;" d="M559.428571 347.428571q0-7.428571-5.714286-13.142857l-266.285714-266.285714q-5.714286-5.714286-13.142857-5.714286t-13.142857 5.714286l-28.571429 28.571429q-5.714286 5.714286-5.714286 13.142857t5.714286 13.142857l224.571429 224.571429-224.571429 224.571429q-5.714286 5.714286-5.714286 13.142857t5.714286 13.142857l28.571429 28.571429q5.714286 5.714286 13.142857 5.714286t13.142857-5.714286l266.285714-266.285714q5.714286-5.714286 5.714286-13.142857zm219.428571 0q0-7.428571-5.714286-13.142857l-266.285714-266.285714q-5.714286-5.714286-13.142857-5.714286t-13.142857 5.714286l-28.571429 28.571429q-5.714286 5.714286-5.714286 13.142857t5.714286 13.142857l224.571429 224.571429-224.571429 224.571429q-5.714286 5.714286-5.714286 13.142857t5.714286 13.142857l28.571429 28.571429q5.714286 5.714286 13.142857 5.714286t13.142857-5.714286l266.285714-266.285714q5.714286-5.714286 5.714286-13.142857z"  horiz-adv-x="1024" />

    
    <glyph glyph-name="angledoubleup" unicode="&#58895;" d="M797.142857 146.285714q0-7.428571-5.714286-13.142857l-28.571429-28.571429q-5.714286-5.714286-13.142857-5.714286t-13.142857 5.714286l-224.571429 224.571429-224.571429-224.571429q-5.714286-5.714286-13.142857-5.714286t-13.142857 5.714286l-28.571429 28.571429q-5.714286 5.714286-5.714286 13.142857t5.714286 13.142857l266.285714 266.285714q5.714286 5.714286 13.142857 5.714286t13.142857-5.714286l266.285714-266.285714q5.714286-5.714286 5.714286-13.142857zm0 219.428571q0-7.428571-5.714286-13.142857l-28.571429-28.571429q-5.714286-5.714286-13.142857-5.714286t-13.142857 5.714286l-224.571429 224.571429-224.571429-224.571429q-5.714286-5.714286-13.142857-5.714286t-13.142857 5.714286l-28.571429 28.571429q-5.714286 5.714286-5.714286 13.142857t5.714286 13.142857l266.285714 266.285714q5.714286 5.714286 13.142857 5.714286t13.142857-5.714286l266.285714-266.285714q5.714286-5.714286 5.714286-13.142857z"  horiz-adv-x="1024" />

    
    <glyph glyph-name="angledown" unicode="&#58896;" d="M797.142857 475.428571q0-7.428571-5.714286-13.142857l-266.285714-266.285714q-5.714286-5.714286-13.142857-5.714286t-13.142857 5.714286l-266.285714 266.285714q-5.714286 5.714286-5.714286 13.142857t5.714286 13.142857l28.571429 28.571429q5.714286 5.714286 13.142857 5.714286t13.142857-5.714286l224.571429-224.571429 224.571429 224.571429q5.714286 5.714286 13.142857 5.714286t13.142857-5.714286l28.571429-28.571429q5.714286-5.714286 5.714286-13.142857z"  horiz-adv-x="1024" />

    
    <glyph glyph-name="angleleft" unicode="&#58897;" d="M687.428571 585.142857q0-7.428571-5.714286-13.142857l-224.571429-224.571429 224.571429-224.571429q5.714286-5.714286 5.714286-13.142857t-5.714286-13.142857l-28.571429-28.571429q-5.714286-5.714286-13.142857-5.714286t-13.142857 5.714286l-266.285714 266.285714q-5.714286 5.714286-5.714286 13.142857t5.714286 13.142857l266.285714 266.285714q5.714286 5.714286 13.142857 5.714286t13.142857-5.714286l28.571429-28.571429q5.714286-5.714286 5.714286-13.142857z"  horiz-adv-x="1024" />

    
    <glyph glyph-name="angleright" unicode="&#58898;" d="M669.142857 347.428571q0-7.428571-5.714286-13.142857l-266.285714-266.285714q-5.714286-5.714286-13.142857-5.714286t-13.142857 5.714286l-28.571429 28.571429q-5.714286 5.714286-5.714286 13.142857t5.714286 13.142857l224.571429 224.571429-224.571429 224.571429q-5.714286 5.714286-5.714286 13.142857t5.714286 13.142857l28.571429 28.571429q5.714286 5.714286 13.142857 5.714286t13.142857-5.714286l266.285714-266.285714q5.714286-5.714286 5.714286-13.142857z"  horiz-adv-x="1024" />

    
    <glyph glyph-name="angleup" unicode="&#58899;" d="M797.142857 219.428571q0-7.428571-5.714286-13.142857l-28.571429-28.571429q-5.714286-5.714286-13.142857-5.714286t-13.142857 5.714286l-224.571429 224.571429-224.571429-224.571429q-5.714286-5.714286-13.142857-5.714286t-13.142857 5.714286l-28.571429 28.571429q-5.714286 5.714286-5.714286 13.142857t5.714286 13.142857l266.285714 266.285714q5.714286 5.714286 13.142857 5.714286t13.142857-5.714286l266.285714-266.285714q5.714286-5.714286 5.714286-13.142857z"  horiz-adv-x="1024" />

    
    <glyph glyph-name="archive" unicode="&#58901;" d="M621.714286 420.571429q0 14.857143-10.857143 25.714286t-25.714286 10.857143l-146.285714 0q-14.857143 0-25.714286-10.857143t-10.857143-25.714286 10.857143-25.714286 25.714286-10.857143l146.285714 0q14.857143 0 25.714286 10.857143t10.857143 25.714286zm329.142857 109.714286l0-548.571429q0-14.857143-10.857143-25.714286t-25.714286-10.857143l-804.571429 0q-14.857143 0-25.714286 10.857143t-10.857143 25.714286l0 548.571429q0 14.857143 10.857143 25.714286t25.714286 10.857143l804.571429 0q14.857143 0 25.714286-10.857143t10.857143-25.714286zm36.571429 256l0-146.285714q0-14.857143-10.857143-25.714286t-25.714286-10.857143l-877.714286 0q-14.857143 0-25.714286 10.857143t-10.857143 25.714286l0 146.285714q0 14.857143 10.857143 25.714286t25.714286 10.857143l877.714286 0q14.857143 0 25.714286-10.857143t10.857143-25.714286z"  horiz-adv-x="1024" />

    
    <glyph glyph-name="areachart" unicode="&#58902;" d="M1170.285714 18.285714l0-73.142857-1170.285714 0 0 877.714286 73.142857 0 0-804.571429 1097.142857 0zm-219.428571 585.142857l146.285714-512-950.857143 0 0 329.142857 256 329.142857 329.142857-329.142857z"  horiz-adv-x="1171" />

    
    <glyph glyph-name="arrowcircledown" unicode="&#58903;" d="M806.857143 383.428571q0 15.428571-10.285714 25.714286l-52 52q-10.285714 10.285714-25.714286 10.285714t-25.714286-10.285714l-108-108 0 286.857143q0 14.857143-10.857143 25.714286t-25.714286 10.857143l-73.142857 0q-14.857143 0-25.714286-10.857143t-10.857143-25.714286l0-286.857143-108 108q-10.857143 10.857143-25.714286 10.857143t-25.714286-10.857143l-52-52q-10.285714-10.285714-10.285714-25.714286t10.285714-25.714286l206.857143-206.857143 52-52q10.285714-10.285714 25.714286-10.285714t25.714286 10.285714l52 52 206.857143 206.857143q10.285714 10.285714 10.285714 25.714286zm144 0.571429q0-119.428571-58.857143-220.285714t-159.714286-159.714286-220.285714-58.857143-220.285714 58.857143-159.714286 159.714286-58.857143 220.285714 58.857143 220.285714 159.714286 159.714286 220.285714 58.857143 220.285714-58.857143 159.714286-159.714286 58.857143-220.285714z"  horiz-adv-x="1024" />

    
    <glyph glyph-name="arrowcircleleft" unicode="&#58904;" d="M804.571429 347.428571l0 73.142857q0 14.857143-10.857143 25.714286t-25.714286 10.857143l-286.857143 0 108 108q10.857143 10.857143 10.857143 25.714286t-10.857143 25.714286l-52 52q-10.285714 10.285714-25.714286 10.285714t-25.714286-10.285714l-206.857143-206.857143-52-52q-10.285714-10.285714-10.285714-25.714286t10.285714-25.714286l52-52 206.857143-206.857143q10.285714-10.285714 25.714286-10.285714t25.714286 10.285714l52 52q10.285714 10.285714 10.285714 25.714286t-10.285714 25.714286l-108 108 286.857143 0q14.857143 0 25.714286 10.857143t10.857143 25.714286zm146.285714 36.571429q0-119.428571-58.857143-220.285714t-159.714286-159.714286-220.285714-58.857143-220.285714 58.857143-159.714286 159.714286-58.857143 220.285714 58.857143 220.285714 159.714286 159.714286 220.285714 58.857143 220.285714-58.857143 159.714286-159.714286 58.857143-220.285714z"  horiz-adv-x="1024" />

    
    <glyph glyph-name="arrowcircleodown" unicode="&#58905;" d="M713.142857 365.714286q0-6.857143-5.714286-13.714286l-182.285714-182.285714q-6.285714-5.142857-13.142857-5.142857t-13.142857 5.142857l-182.857143 182.857143q-8.571429 9.142857-4 20 4.571429 11.428571 17.142857 11.428571l109.714286 0 0 201.142857q0 8 5.142857 13.142857t13.142857 5.142857l109.714286 0q8 0 13.142857-5.142857t5.142857-13.142857l0-201.142857 109.714286 0q8 0 13.142857-5.142857t5.142857-13.142857zm-201.142857 329.142857q-84.571429 0-156-41.714286t-113.142857-113.142857-41.714286-156 41.714286-156 113.142857-113.142857 156-41.714286 156 41.714286 113.142857 113.142857 41.714286 156-41.714286 156-113.142857 113.142857-156 41.714286zm438.857143-310.857143q0-119.428571-58.857143-220.285714t-159.714286-159.714286-220.285714-58.857143-220.285714 58.857143-159.714286 159.714286-58.857143 220.285714 58.857143 220.285714 159.714286 159.714286 220.285714 58.857143 220.285714-58.857143 159.714286-159.714286 58.857143-220.285714z"  horiz-adv-x="1024" />

    
    <glyph glyph-name="arrowcircleoleft" unicode="&#58906;" d="M731.428571 438.857143l0-109.714286q0-7.428571-5.428571-12.857143t-12.857143-5.428571l-201.142857 0 0-109.714286q0-8-5.142857-13.142857t-13.142857-5.142857q-6.857143 0-13.714286 5.714286l-182.285714 182.285714q-5.142857 5.142857-5.142857 13.142857t5.142857 13.142857l182.857143 182.857143q5.142857 5.142857 13.142857 5.142857 7.428571 0 12.857143-5.428571t5.428571-12.857143l0-109.714286 201.142857 0q7.428571 0 12.857143-5.428571t5.428571-12.857143zm91.428571-54.857143q0 84.571429-41.714286 156t-113.142857 113.142857-156 41.714286-156-41.714286-113.142857-113.142857-41.714286-156 41.714286-156 113.142857-113.142857 156-41.714286 156 41.714286 113.142857 113.142857 41.714286 156zm128 0q0-119.428571-58.857143-220.285714t-159.714286-159.714286-220.285714-58.857143-220.285714 58.857143-159.714286 159.714286-58.857143 220.285714 58.857143 220.285714 159.714286 159.714286 220.285714 58.857143 220.285714-58.857143 159.714286-159.714286 58.857143-220.285714z"  horiz-adv-x="1024" />

    
    <glyph glyph-name="arrowcircleoright" unicode="&#58907;" d="M731.428571 384q0-8-5.142857-13.142857l-182.857143-182.857143q-5.142857-5.142857-13.142857-5.142857-7.428571 0-12.857143 5.428571t-5.428571 12.857143l0 109.714286-201.142857 0q-7.428571 0-12.857143 5.428571t-5.428571 12.857143l0 109.714286q0 7.428571 5.428571 12.857143t12.857143 5.428571l201.142857 0 0 109.714286q0 8 5.142857 13.142857t13.142857 5.142857q6.857143 0 13.714286-5.714286l182.285714-182.285714q5.142857-5.142857 5.142857-13.142857zm91.428571 0q0 84.571429-41.714286 156t-113.142857 113.142857-156 41.714286-156-41.714286-113.142857-113.142857-41.714286-156 41.714286-156 113.142857-113.142857 156-41.714286 156 41.714286 113.142857 113.142857 41.714286 156zm128 0q0-119.428571-58.857143-220.285714t-159.714286-159.714286-220.285714-58.857143-220.285714 58.857143-159.714286 159.714286-58.857143 220.285714 58.857143 220.285714 159.714286 159.714286 220.285714 58.857143 220.285714-58.857143 159.714286-159.714286 58.857143-220.285714z"  horiz-adv-x="1024" />

    
    <glyph glyph-name="arrowcircleoup" unicode="&#58908;" d="M712 395.428571q-4.571429-11.428571-17.142857-11.428571l-109.714286 0 0-201.142857q0-8-5.142857-13.142857t-13.142857-5.142857l-109.714286 0q-8 0-13.142857 5.142857t-5.142857 13.142857l0 201.142857-109.714286 0q-8 0-13.142857 5.142857t-5.142857 13.142857q0 6.857143 5.714286 13.714286l182.285714 182.285714q6.285714 5.142857 13.142857 5.142857t13.142857-5.142857l182.857143-182.857143q8.571429-9.142857 4-20zm-200 299.428571q-84.571429 0-156-41.714286t-113.142857-113.142857-41.714286-156 41.714286-156 113.142857-113.142857 156-41.714286 156 41.714286 113.142857 113.142857 41.714286 156-41.714286 156-113.142857 113.142857-156 41.714286zm438.857143-310.857143q0-119.428571-58.857143-220.285714t-159.714286-159.714286-220.285714-58.857143-220.285714 58.857143-159.714286 159.714286-58.857143 220.285714 58.857143 220.285714 159.714286 159.714286 220.285714 58.857143 220.285714-58.857143 159.714286-159.714286 58.857143-220.285714z"  horiz-adv-x="1024" />

    
    <glyph glyph-name="arrowcircleright" unicode="&#58909;" d="M807.428571 384q0 15.428571-10.285714 25.714286l-52 52-206.857143 206.857143q-10.285714 10.285714-25.714286 10.285714t-25.714286-10.285714l-52-52q-10.285714-10.285714-10.285714-25.714286t10.285714-25.714286l108-108-286.857143 0q-14.857143 0-25.714286-10.857143t-10.857143-25.714286l0-73.142857q0-14.857143 10.857143-25.714286t25.714286-10.857143l286.857143 0-108-108q-10.857143-10.857143-10.857143-25.714286t10.857143-25.714286l52-52q10.285714-10.285714 25.714286-10.285714t25.714286 10.285714l206.857143 206.857143 52 52q10.285714 10.285714 10.285714 25.714286zm143.428571 0q0-119.428571-58.857143-220.285714t-159.714286-159.714286-220.285714-58.857143-220.285714 58.857143-159.714286 159.714286-58.857143 220.285714 58.857143 220.285714 159.714286 159.714286 220.285714 58.857143 220.285714-58.857143 159.714286-159.714286 58.857143-220.285714z"  horiz-adv-x="1024" />

    
    <glyph glyph-name="arrowcircleup" unicode="&#58910;" d="M806.857143 384.571429q0 15.428571-10.285714 25.714286l-206.857143 206.857143-52 52q-10.285714 10.285714-25.714286 10.285714t-25.714286-10.285714l-52-52-206.857143-206.857143q-10.285714-10.285714-10.285714-25.714286t10.285714-25.714286l52-52q10.285714-10.285714 25.714286-10.285714t25.714286 10.285714l108 108 0-286.857143q0-14.857143 10.857143-25.714286t25.714286-10.857143l73.142857 0q14.857143 0 25.714286 10.857143t10.857143 25.714286l0 286.857143 108-108q10.857143-10.857143 25.714286-10.857143t25.714286 10.857143l52 52q10.285714 10.285714 10.285714 25.714286zm144-0.571429q0-119.428571-58.857143-220.285714t-159.714286-159.714286-220.285714-58.857143-220.285714 58.857143-159.714286 159.714286-58.857143 220.285714 58.857143 220.285714 159.714286 159.714286 220.285714 58.857143 220.285714-58.857143 159.714286-159.714286 58.857143-220.285714z"  horiz-adv-x="1024" />

    
    <glyph glyph-name="arrowdown" unicode="&#58911;" d="M957.142857 420.571429q0-30.285714-21.142857-51.428571l-372-372.571429q-22.285714-21.142857-52-21.142857-30.285714 0-51.428571 21.142857l-372 372.571429q-21.714286 20.571429-21.714286 51.428571 0 30.285714 21.714286 52l42.285714 42.857143q22.285714 21.142857 52 21.142857 30.285714 0 51.428571-21.142857l168-168 0 402.285714q0 29.714286 21.714286 51.428571t51.428571 21.714286l73.142857 0q29.714286 0 51.428571-21.714286t21.714286-51.428571l0-402.285714 168 168q21.142857 21.142857 51.428571 21.142857 29.714286 0 52-21.142857l42.857143-42.857143q21.142857-22.285714 21.142857-52z"  horiz-adv-x="1024" />

    
    <glyph glyph-name="arrowleft" unicode="&#58912;" d="M950.857143 384l0-73.142857q0-30.285714-18.571429-51.714286t-48.285714-21.428571l-402.285714 0 167.428571-168q21.714286-20.571429 21.714286-51.428571t-21.714286-51.428571l-42.857143-43.428571q-21.142857-21.142857-51.428571-21.142857-29.714286 0-52 21.142857l-372 372.571429q-21.142857 21.142857-21.142857 51.428571 0 29.714286 21.142857 52l372 371.428571q21.714286 21.714286 52 21.714286 29.714286 0 51.428571-21.714286l42.857143-42.285714q21.714286-21.714286 21.714286-52t-21.714286-52l-167.428571-167.428571 402.285714 0q29.714286 0 48.285714-21.428571t18.571429-51.714286z"  horiz-adv-x="1024" />

    
    <glyph glyph-name="arrowright" unicode="&#58913;" d="M914.285714 347.428571q0-30.857143-21.142857-52l-372-372q-22.285714-21.142857-52-21.142857-29.142857 0-51.428571 21.142857l-42.857143 42.857143q-21.714286 21.714286-21.714286 52t21.714286 52l167.428571 167.428571-402.285714 0q-29.714286 0-48.285714 21.428571t-18.571429 51.714286l0 73.142857q0 30.285714 18.571429 51.714286t48.285714 21.428571l402.285714 0-167.428571 168q-21.714286 20.571429-21.714286 51.428571t21.714286 51.428571l42.857143 42.857143q21.714286 21.714286 51.428571 21.714286 30.285714 0 52-21.714286l372-372q21.142857-20 21.142857-51.428571z"  horiz-adv-x="1024" />

    
    <glyph glyph-name="arrowup" unicode="&#58914;" d="M957.142857 341.142857q0-29.142857-21.142857-51.428571l-42.857143-42.857143q-21.714286-21.714286-52-21.714286-30.857143 0-51.428571 21.714286l-168 167.428571 0-402.285714q0-29.714286-21.428571-48.285714t-51.714286-18.571429l-73.142857 0q-30.285714 0-51.714286 18.571429t-21.428571 48.285714l0 402.285714-168-167.428571q-20.571429-21.714286-51.428571-21.714286t-51.428571 21.714286l-42.857143 42.857143q-21.714286 21.714286-21.714286 51.428571 0 30.285714 21.714286 52l372 372q20 21.142857 51.428571 21.142857 30.857143 0 52-21.142857l372-372q21.142857-22.285714 21.142857-52z"  horiz-adv-x="1024" />

    
    <glyph glyph-name="arrowsalt" unicode="&#58915;" d="M806.285714 586.857143l-202.857143-202.857143 202.857143-202.857143 82.285714 82.285714q16.571429 17.714286 40 8 22.285714-9.714286 22.285714-33.714286l0-256q0-14.857143-10.857143-25.714286t-25.714286-10.857143l-256 0q-24 0-33.714286 22.857143-9.714286 22.285714 8 39.428571l82.285714 82.285714-202.857143 202.857143-202.857143-202.857143 82.285714-82.285714q17.714286-17.142857 8-39.428571-9.714286-22.857143-33.714286-22.857143l-256 0q-14.857143 0-25.714286 10.857143t-10.857143 25.714286l0 256q0 24 22.857143 33.714286 22.285714 9.714286 39.428571-8l82.285714-82.285714 202.857143 202.857143-202.857143 202.857143-82.285714-82.285714q-10.857143-10.857143-25.714286-10.857143-6.857143 0-13.714286 2.857143-22.857143 9.714286-22.857143 33.714286l0 256q0 14.857143 10.857143 25.714286t25.714286 10.857143l256 0q24 0 33.714286-22.857143 9.714286-22.285714-8-39.428571l-82.285714-82.285714 202.857143-202.857143 202.857143 202.857143-82.285714 82.285714q-17.714286 17.142857-8 39.428571 9.714286 22.857143 33.714286 22.857143l256 0q14.857143 0 25.714286-10.857143t10.857143-25.714286l0-256q0-24-22.285714-33.714286-7.428571-2.857143-14.285714-2.857143-14.857143 0-25.714286 10.857143z"  horiz-adv-x="1024" />

    
    <glyph glyph-name="arrowsh" unicode="&#58916;" d="M1024 384q0-14.857143-10.857143-25.714286l-146.285714-146.285714q-10.857143-10.857143-25.714286-10.857143t-25.714286 10.857143-10.857143 25.714286l0 73.142857-585.142857 0 0-73.142857q0-14.857143-10.857143-25.714286t-25.714286-10.857143-25.714286 10.857143l-146.285714 146.285714q-10.857143 10.857143-10.857143 25.714286t10.857143 25.714286l146.285714 146.285714q10.857143 10.857143 25.714286 10.857143t25.714286-10.857143 10.857143-25.714286l0-73.142857 585.142857 0 0 73.142857q0 14.857143 10.857143 25.714286t25.714286 10.857143 25.714286-10.857143l146.285714-146.285714q10.857143-10.857143 10.857143-25.714286z"  horiz-adv-x="1024" />

    
    <glyph glyph-name="arrowsv" unicode="&#58917;" d="M694.857143 713.142857q0-14.857143-10.857143-25.714286t-25.714286-10.857143l-73.142857 0 0-585.142857 73.142857 0q14.857143 0 25.714286-10.857143t10.857143-25.714286-10.857143-25.714286l-146.285714-146.285714q-10.857143-10.857143-25.714286-10.857143t-25.714286 10.857143l-146.285714 146.285714q-10.857143 10.857143-10.857143 25.714286t10.857143 25.714286 25.714286 10.857143l73.142857 0 0 585.142857-73.142857 0q-14.857143 0-25.714286 10.857143t-10.857143 25.714286 10.857143 25.714286l146.285714 146.285714q10.857143 10.857143 25.714286 10.857143t25.714286-10.857143l146.285714-146.285714q10.857143-10.857143 10.857143-25.714286z"  horiz-adv-x="1024" />

    
    <glyph glyph-name="arrows" unicode="&#58918;" d="M1024 384q0-14.857143-10.857143-25.714286l-146.285714-146.285714q-10.857143-10.857143-25.714286-10.857143t-25.714286 10.857143-10.857143 25.714286l0 73.142857-219.428571 0 0-219.428571 73.142857 0q14.857143 0 25.714286-10.857143t10.857143-25.714286-10.857143-25.714286l-146.285714-146.285714q-10.857143-10.857143-25.714286-10.857143t-25.714286 10.857143l-146.285714 146.285714q-10.857143 10.857143-10.857143 25.714286t10.857143 25.714286 25.714286 10.857143l73.142857 0 0 219.428571-219.428571 0 0-73.142857q0-14.857143-10.857143-25.714286t-25.714286-10.857143-25.714286 10.857143l-146.285714 146.285714q-10.857143 10.857143-10.857143 25.714286t10.857143 25.714286l146.285714 146.285714q10.857143 10.857143 25.714286 10.857143t25.714286-10.857143 10.857143-25.714286l0-73.142857 219.428571 0 0 219.428571-73.142857 0q-14.857143 0-25.714286 10.857143t-10.857143 25.714286 10.857143 25.714286l146.285714 146.285714q10.857143 10.857143 25.714286 10.857143t25.714286-10.857143l146.285714-146.285714q10.857143-10.857143 10.857143-25.714286t-10.857143-25.714286-25.714286-10.857143l-73.142857 0 0-219.428571 219.428571 0 0 73.142857q0 14.857143 10.857143 25.714286t25.714286 10.857143 25.714286-10.857143l146.285714-146.285714q10.857143-10.857143 10.857143-25.714286z"  horiz-adv-x="1024" />

    
    <glyph glyph-name="asterisk" unicode="&#58919;" d="M883.428571 296q26.285714-14.857143 34-44.285714t-7.142857-55.714286l-36.571429-62.857143q-14.857143-26.285714-44.285714-34t-55.714286 7.142857l-152 87.428571 0-175.428571q0-29.714286-21.714286-51.428571t-51.428571-21.714286l-73.142857 0q-29.714286 0-51.428571 21.714286t-21.714286 51.428571l0 175.428571-152-87.428571q-26.285714-14.857143-55.714286-7.142857t-44.285714 34l-36.571429 62.857143q-14.857143 26.285714-7.142857 55.714286t34 44.285714l152 88-152 88q-26.285714 14.857143-34 44.285714t7.142857 55.714286l36.571429 62.857143q14.857143 26.285714 44.285714 34t55.714286-7.142857l152-87.428571 0 175.428571q0 29.714286 21.714286 51.428571t51.428571 21.714286l73.142857 0q29.714286 0 51.428571-21.714286t21.714286-51.428571l0-175.428571 152 87.428571q26.285714 14.857143 55.714286 7.142857t44.285714-34l36.571429-62.857143q14.857143-26.285714 7.142857-55.714286t-34-44.285714l-152-88z"  horiz-adv-x="1024" />

    
    </font>
</defs>
</svg>
